<svg xmlns="http://www.w3.org/2000/svg" viewBox="0 0 500 500"><g id="freepik--Background--inject-192"><path id="freepik--background--inject-192" d="M482.67,223c-17.68-62.19-35.58-96.44-58-124.92C329.78-22.62,139.27-18.9,48.53,132.7c-25.6,42.77-52,154.89-33,225.21l0,.09c6.5,28.53,28.72,56.1,66.69,78,91.61,52.89,240.15,52.89,331.76,0,31.36-18.1,52-40.06,61.87-63.23C494.19,335.36,496.87,273,482.67,223Z" style="fill:#37474f"></path></g><g id="freepik--Floor--inject-192"><g id="freepik--floor--inject-192"><path id="freepik--floor--inject-192" d="M82.2,244.48C-9.41,297.37-9.41,383.13,82.21,436S322.36,488.91,414,436s91.62-138.65,0-191.54S173.82,191.58,82.2,244.48Z" style="fill:#37474f"></path><path d="M262.07,236.56l47-27.12-1.64-.25-45.85,26.47Zm-79.56-7.32c-1.26.72-1.26,1.89,0,2.62a5,5,0,0,0,4.54,0c1.07-.62,1.22-1.57.45-2.29l24.69-14.25.26-.15v-8.79l-1,.09v8.1L186.47,229A5.07,5.07,0,0,0,182.51,229.24Zm-93.34,61a2,2,0,0,0,.8.79,5,5,0,0,0,4.54,0c1.08-.62,1.22-1.57.45-2.29l9.84-5.67,7.54,4.35.51-.89-7-4.06L122.21,273l7.54,4.36.51-.9-7-4.05,18.49-10.68,7.54,4.36.51-.9-7-4.05,8-4.6,3.6,2.08.52-.9L151.76,256l11.32-6.53-.52-.9-11.83,6.83L137,247.46c.84-.72.72-1.7-.39-2.34a5.1,5.1,0,0,0-4.06-.23l-1.06-.61V227.39l-5.12-2.95-1.29.45,5.37,3.1v15.69l-21.59-12.46-1.18.51,23.88,13.79c-.7.7-.54,1.62.51,2.22a5,5,0,0,0,3.86.29L149.7,256l-8,4.6-43-24.8-1.12.55,43,24.85-18.49,10.67L98.38,258.09l-.12-.07H77.57a2.08,2.08,0,0,0-.76-.7A5.1,5.1,0,0,0,73,257l-5.52-3.18-.94.65,5.38,3.1c-.84.72-.71,1.71.39,2.35a5,5,0,0,0,4.54,0,1.92,1.92,0,0,0,.85-.88H98l23.2,13.39L104.8,281.9l-15.07-8.69H60.08l-9.9-5.72-.81.73,9.54,5.51L29.84,290.51c-.45.65-.9,1.3-1.32,2l31.56-18.23H89.46l14.3,8.26-9.83,5.68a5.07,5.07,0,0,0-4,.26,2,2,0,0,0-.8.79H52l-31.5,18.19c-.22.52-.44,1.05-.65,1.57l32.43-18.72ZM290.47,207l-1.75-.18-2.32,1.34.52.89ZM164.82,229.21l-14,8.1,22.44,12.95.51-.89-20.88-12.06,12.9-7.45a5.22,5.22,0,0,0,3.47.14l19.54,11.29.52-.9-19-10.95a1.27,1.27,0,0,0-.08-2.17l18.33-10.58-10.06-5.81-1.58.28,9.57,5.53-17.39,10a5.3,5.3,0,0,0-3.25.14l-16.49-9.53-1.4.39,16.92,9.77A1.19,1.19,0,0,0,164.82,229.21ZM50.91,362.81l35.42-20.45-.51-.9L50.64,361.77H35.05l-15.55,9,.39,1,15.43-8.91ZM399.26,302l.13-.07h13.79l69.47,40.1c0-.39,0-.78,0-1.18L458.58,327l4.22-2.44V313L475,305.92c-.14-.32-.27-.64-.42-.95L462,312.24l-.26.14v11.54l-4.23,2.45-19-11v-8.74l18.13-10.47.25-.15V279.13l.4-.22c-.24-.26-.47-.53-.7-.79L415.29,302l-1.71-1-.12-.07H401.17L451,272.18l-.75-.76-51.09,29.49H373.32l-1-.6L404,282l-.52-.9-32.19,18.59-16-9.22h1.34l43.49-25.11h20.36a2,2,0,0,0,.8.79,5,5,0,0,0,4.54,0c1.07-.62,1.22-1.57.45-2.28l9.09-5.25-.89-.68-9.23,5.33a5.11,5.11,0,0,0-4,.26,2,2,0,0,0-.8.8H399.82l-43.48,25.1h-2.86l-18-10.39,50-28.86h29.65l4.27-2.47c-.33-.21-.65-.42-1-.62l-3.55,2H385.22l-50.76,29.31-15.14-8.74,63-36.37a5.26,5.26,0,0,0,3.48,0l16.59,9.58,4.27-2.47-1.07-.57-3.2,1.85-15.6-9a1.19,1.19,0,0,0,.16-1.65L384.31,230a5.14,5.14,0,0,0-1.89.22L377,227.05c-1.88-.71-3.78-1.41-5.68-2.09l10,5.8a1.25,1.25,0,0,0-.06,2l-63,36.37-15.13-8.74,6.15-3.54.26-.15V240.06l38.67-22.33-1.4-.38L287.7,251.48l-3.88-2.24-.12-.07H263l34.23-19.76h15.59L337.67,215l-1.46-.35-23.7,13.68H296.93L261.5,248.82l.21.35h-7.66l-18.64-10.76L270,218.47l.26-.14V205.41l-1,0v12.37l-34.79,20.09L231.17,236l-.52.9,2.7,1.55L217,247.87,213.76,246l-.52.89,2.7,1.56-17.66,10.19-.26.15v.66l-3.78-2.18-.52.89,4.3,2.48v9.21l-8.85-5.11-.51.89,9.36,5.41v1.28l-14.57,8.42-13.17-7.61-.52.9,12.66,7.3-14.52,8.38-13.17-7.6-.51.89,12.65,7.31-62.18,35.9H81.4L39.31,350.52V335.07l208.5-120.38.26-.14v-9.74h-1V214L84.08,308H51.76L14.21,329.7c-.05.43-.11.86-.16,1.29l38-21.93H82.29L38.54,334.32l-.26.15v16.65L17,363.44c.1.33.21.67.31,1l64.41-37.19H105l62.93-36.34,7.2,4.16-17.41,10.06a5,5,0,0,0-4.16.18c-1.25.72-1.25,1.89,0,2.62a5.11,5.11,0,0,0,4,.26l4.34,2.51L149,318.09l-.26.15v13.53L77.89,372.71l-.26.14V392.8l-16,9.21a5.12,5.12,0,0,0-4,.26,1.94,1.94,0,0,0-.79.8H40.19l1,1H56.92a1.61,1.61,0,0,0,.34.46l-10,5.76.78.74,10.23-5.9a5,5,0,0,0,4-.27c1.08-.62,1.23-1.57.46-2.28l15.7-9.06.25-.15V373.45l70.9-40.93.25-.15V318.84l13.06-7.54,25,14.46L100,376.49l-.26.14v21.9L60.21,421.37l.89.68,39.45-22.78.25-.15V377.23l88.13-50.88,11.23,6.49-15.4,8.89-.26.15V364.8L78.76,425.85,97.1,436.43A1.27,1.27,0,0,0,97,438.6l-4.88,2.82,1.1.56,4.88-2.82a5.19,5.19,0,0,0,3.46-.14l12.91,7.45-5.19,3,1.2.5,6.05-3.49-14-8.1a1.2,1.2,0,0,0-.06-1.71l28.26-16.32.26-.15V408.65l100.25-57.88,13.22,7.63-90,51.94-.26.15v15.45L136.09,436.4l-.25.15v16.89l-6.39,3.69,1.31.43L223.58,404l.26-.15v-15.9l35.86-20.71,1,.56v22.92l14.25,8.23L257.43,409h-12.3l-94.4,54.5,1.43.37L245.4,410h12.31L276,399.51l13.2,7.62L258.28,425c-1,.15-10.61.24-15.65.23h-.14l-73.84,42.53,1.52.32,72.6-41.82c2.12,0,15.39,0,16-.33l31.44-18.15,13.22,7.63-46.28,26.72H237.94l-31.23,18.19h-8.39l-17,9.84,1.61.26,15.72-9.07H207l31.22-18.19H257.4l47-27.15,25.41,14.67h-33l-44.08,25.45a5.11,5.11,0,0,0-4,.26c-1.25.73-1.25,1.9,0,2.62a5,5,0,0,0,4.54,0c1.08-.62,1.23-1.57.45-2.29l43.33-25h62.6L329,449.42H296.66L251.2,475.67h2.09l43.65-25.2H327.2l-40.53,23.39,2.5-.25,72.65-41.94h9.95l5.57,3.22-16.61,9.58a5.11,5.11,0,0,0-4,.26c-1.26.73-1.26,1.9,0,2.63a5,5,0,0,0,4.54,0c1.07-.63,1.22-1.58.45-2.29l16.61-9.59,17.38,10,1.13-.54L372.17,430.7h0l-.09-.05,0,0h0L298.6,388.39c.76-.72.61-1.66-.46-2.28a5,5,0,0,0-4.54,0c-1.25.72-1.25,1.89,0,2.62a5.12,5.12,0,0,0,4,.26L370,430.63H331.91L261.7,390.1V367.17l-1-.55,9.14-5.28,136.55,78.84c.36-.19.72-.38,1.07-.58L270.91,360.74l13.22-7.63,126,72.77c.82.47,11.34.36,19.4.2.51-.35,1-.71,1.5-1.06-8.76.17-19.48.28-20.38,0L285.16,352.51l11.54-6.66a2.58,2.58,0,0,0,.53.42,5.11,5.11,0,0,0,4,.26L411.08,410l.12.06h26.64l7,4,.8-.72-7.38-4.27-.12-.07H411.48l-98.54-56.89h29.55l57.91,33.43c-.77.71-.63,1.66.45,2.28a5,5,0,0,0,4.54,0,1.38,1.38,0,0,0,0-2.62,5.11,5.11,0,0,0-4-.26l-58.54-33.8-.12-.07H311.15l-8.93-5.15c.77-.71.62-1.66-.45-2.28a3.33,3.33,0,0,0-.72-.31l33.41-19.29,110.61,63.87v15.9l6.58,3.8c.25-.25.51-.5.75-.76l-6.3-3.63V387.32L335.36,323.39l-.45-.79-.45.26-.46-.26-.12-.07H308.63l25.82-14.91,134.83,77.84.53-.88L336.23,307.46c4.38-.16,15.71,0,23.17.2h.15l1.74-1,114.55,66.13c.14-.32.27-.64.4-1L362.32,306.06l8.92-5.15,1.68,1h0l.09.05,0,0h0l84.65,48.68c-.75.71-.6,1.65.47,2.27a5,5,0,0,0,4.54,0,1.38,1.38,0,0,0,0-2.62,5.12,5.12,0,0,0-4-.26L375.11,302h24.11Zm38.23,12.77L430.94,311l6.55-3.78Zm18.38-35.06v15.69l-26,15-13.59-7.84Zm-121.41-.06,17,9.79H335.34l-.88.51-.77-.44-.12-.07H317.5ZM225.7,303.93l-18.56,10.71v-2.26l-23.07-13.32L212,282.93V296ZM215.3,281l25,14.45-13.59,7.85L213,295.42V282.33Zm-2.26.11v-1.41l1.22.71Zm20,39.24a4.38,4.38,0,0,0-1.58-.5V316l7.57-4.37,29,16.73-12.35,7.13-22.18-12.81C234.23,322,234.09,321,233,320.38Zm19.59-17.81L239,310.41l-11.23-6.48,13.59-7.85Zm-10.21-7.09,8-4.6,17.38,10H255.46L253.63,302ZM238,311l-6.54,3.78v-7.56Zm2.07,0,13.59-7.85,29,16.74L269,327.75Zm14.62-8.44,1.08-.62h13.79l22.09,12.75-8,4.61Zm-3.26-12.28,12.36-7.14h3.16l29.72,17.16-1,.6H269.8ZM269,283.15h27.1l1.75-1,14.35,8.29.12.07h1.34l-16,9.22Zm26.83-1H267.19l-.82-.48,15.3-8.83,15.13,8.74Zm-45.45,7.57-25-14.45,17-9.82a1.94,1.94,0,0,0,.79.76,5,5,0,0,0,4.54,0,1.92,1.92,0,0,0,.79-.79h20.36l11.82,6.82Zm-1,.6-8,4.6-25-14.45,8-4.61Zm-42.19,25.55,19.6-11.32,3.65,2.12v8.74l-19,11-4.23-2.45Zm23.26.74v3.27a4.56,4.56,0,0,0-1.93.53,1.38,1.38,0,0,0,0,2.62,5.07,5.07,0,0,0,4,.26l22.19,12.81L241.4,343.7l-29-16.74Zm25.25,20.09,13.22,7.63-13.22,7.63-13.22-7.63Zm1-.6L269,328.94l5.89,3.4.51-.9-5.37-3.09,13.59-7.85,13.22,7.63-27,15.57Zm28-16.17,8-4.6,13.22,7.63-8,4.6Zm8-5.79L271.59,302h24.28l1.8-1,8.92,5.15Zm6-13.8,17-9.81H333.3l.12.07-25.79,14.89Zm19.58-30,15.14,8.74-18,10.39h-2.85l-13.72-7.91Zm-1-.59L297.83,281l-15.13-8.74L302.12,261Zm-8.72-29.09v15.46l-6.41,3.7-13.38-7.73Zm-20.83,12,13.39,7.72-19.42,11.22-12.46-7.19-.12-.07h-1.62ZM234.38,239l19.39,11.2h29.65l3.25,1.87-20.51,11.84h-18a2.24,2.24,0,0,0-.47-.36,5.11,5.11,0,0,0-4-.26L218,248.47ZM199.06,259.4,217,249.06l25.69,14.84a1.75,1.75,0,0,0-.26.29l-18.1,10.45-25.24-14.57Zm0,1.86,24.21,14-8,4.6-16.24-9.38Zm-.26,11.83.26-.15v-1.28L212,279.13v2.61l-29,16.73-5.86-3.39,15.55-9-8.24-4.76Zm-29.86,17.24L183.45,282l7.2,4.16-14.51,8.37ZM158.52,307.6a1.21,1.21,0,0,0,.12-1.82l17.5-10.1,5.86,3.38-19.13,11.05Zm5.38,3.11,19.13-11L206.11,313v2.26l-17.18,9.92ZM190,325.76l16.15-9.33v8.09l4.23,2.44-9.14,5.28ZM130.19,407.9l-.25.15v11.54L101.47,436a5.26,5.26,0,0,0-3.24-.14l-17.4-10,104.44-60.3.26-.15V342.48l15.67-9.05,29,16.74Zm72-75.06,9.14-5.28,29,16.74-9.14,5.28Zm30,17.33,9.14-5.28,13.22,7.64-9.14,5.27Zm-9.19,37-.26.15v15.91l-85.94,49.61V437.15l62.39-36-.52-.89-43.48,25.1V411.09L245.47,359l13.2,7.62ZM259.71,366l-13.2-7.62,9.14-5.28,13.2,7.62Zm10.17-5.87-13.2-7.62,13.22-7.64,13.2,7.62Zm29.1-17a4.27,4.27,0,0,0-1.75.52,1.61,1.61,0,0,0-.93,1.24l-12.17,7c-4.57-2.64-9-5.2-13.2-7.62l27-15.57,1.08.62Zm34.26-19.57L300,342.75v-14l-1.08-.62,8-4.6.06,0Zm-26.33-1.22-13.22-7.64,13.94-8,1.61.93.13.07h.14c7.48-.19,18.86-.36,23.19-.21Zm52.37-15.72c-6.85-.17-21.89-.48-24.82,0-2.93-.44-18-.13-24.83,0l-1-.56,25.8-14.89,25.8,14.89Zm2-1.16-25.8-14.89.13-.07h17.59l17,9.81ZM60.92,382.1,37.19,395.8H34.08c.27.34.53.69.81,1h2.57l24-13.84Zm24.85-27.48L28.36,387.77c.18.29.37.58.56.87l57.37-33.12Z" style="fill:#fff;opacity:0.05"></path></g></g><g id="freepik--Arrow--inject-192"><g id="freepik--arrow--inject-192"><path d="M210.65,270.38l31.69-18.31c2.23-1.32.76-3.45-2.19-3.61l-132.37-8.67L102,243.1l15,76.43c.5,2,4.44,2.41,6.25,1.26L155,302.49,341.36,464.56C367.73,458,392.43,448.46,414,436c31-17.91,51.52-39.58,61.54-62.48Z" style="fill:#92E3A9;opacity:0.2"></path><path d="M119.6,342c-10.22,0-18.65-6.17-21-15.35l-.12-.48L83.34,249a20.39,20.39,0,0,1,4.29-16.81c4.11-4.93,10.38-7.65,17.66-7.65.85,0,1.74,0,2.65.11l132.24,8.65c9.47.54,17.3,6.73,19.42,15.42a19.49,19.49,0,0,1-9.3,21.39l-31.85,18.41-55.62,32.12-31.56,18.2A22.89,22.89,0,0,1,119.6,342Z" style="fill:#92E3A9;opacity:0.15"></path><path d="M119.6,333c-6.06,0-11-3.46-12.34-8.62l-.06-.24L92.12,247.4a11.35,11.35,0,0,1,2.37-9.48c1.69-2,4.93-4.44,10.8-4.44.64,0,1.31,0,2,.08l132.31,8.67c5.56.31,10.14,3.78,11.32,8.61a10.49,10.49,0,0,1-5.17,11.6L214,280.8l-55.62,32.11-31.62,18.24A13.9,13.9,0,0,1,119.6,333Z" style="fill:#92E3A9;opacity:0.15"></path><path d="M454.81,404.34,250.38,295.59h0l-39.73-21.14,31.69-18.32c2.18-1.25.87-3.41-2.19-3.61l-50.36-3.29a5.66,5.66,0,0,0-1.82-1.58,12.86,12.86,0,0,0-11.62,0c-3.2,1.85-3.2,4.85,0,6.71a12.86,12.86,0,0,0,11.62,0c.27-.16.5-.32.72-.48l41.4,2.7-31.16,18,45.71,24.31-7.72,4.46-50.6-28.43,22.15-12.79c.83-.48.33-1.31-.84-1.39L128,255.53l-11-6.33,29.69,2a6,6,0,0,0,1.66,1.39,12.86,12.86,0,0,0,11.62,0c3.21-1.85,3.21-4.86,0-6.71a12.86,12.86,0,0,0-11.62,0,6.1,6.1,0,0,0-.93.65l-34.09-2.24a5.65,5.65,0,0,0-1.83-1.61,12.84,12.84,0,0,0-11.61,0c-3.21,1.86-3.21,4.86,0,6.71a12.65,12.65,0,0,0,8,1.2L124,259.86h0l.25.15,24,1.57,1.57,8a10.42,10.42,0,0,0-1.9.8c-3.21,1.85-3.21,4.85,0,6.71a12.86,12.86,0,0,0,11.62,0c3.21-1.86,3.21-4.86,0-6.71a10,10,0,0,0-2.76-1.05l-1.43-7.28,37.48,2.45L174.76,275,235,308.8,227.61,313l-44-25.39c.75-1.59.05-3.36-2.11-4.61a12.86,12.86,0,0,0-11.62,0c-3.21,1.85-3.21,4.86,0,6.71a12.73,12.73,0,0,0,8,1.2l52.26,30.17-7.35,4.24-7.7-4.45-59.15-35.07L137.8,296.31l-4-20.23-16.44-9.5c1-1.67.42-3.62-1.91-5a12.86,12.86,0,0,0-11.62,0c-3.2,1.85-3.2,4.85,0,6.71a10.65,10.65,0,0,0,2.55,1l10.64,54.27c.34,1.77,4.07,2.52,6.25,1.27L155,306.56l36.62,22.94,192.87,121A250.62,250.62,0,0,0,414,436C430.62,426.41,444.22,415.72,454.81,404.34Zm-254-76-3.42-2.13L155.27,299.8l-31.18,18-9.21-47,11,6.35,4,20.43a6.67,6.67,0,0,0-.66.31c-3.21,1.86-3.21,4.86,0,6.71a12.84,12.84,0,0,0,11.61,0c2.18-1.26,2.88-3,2.1-4.64l12.91-7.46,52.78,31.3Zm39.87-22.84-3.77-2.11,3.78,2.11Z" style="opacity:0.4"></path><path d="M244.88,295l5.5-3.45-39.73-21.14,31.69-18.31c2.18-1.26.87-3.41-2.19-3.61L182.6,244.7l-.91,4.65,48.4,3.17-31.16,18Z" style="fill:#92E3A9"></path><polygon points="106.94 244.47 153.73 247.54 154.64 242.89 107.85 239.82 106.94 244.47" style="fill:#92E3A9"></polygon><path d="M197.61,322.26l-6,3.17L155,302.49l-31.72,18.3c-2.18,1.26-5.91.5-6.25-1.26l-11.61-59.24,8.06-.53,10.58,54,31.18-18Z" style="fill:#92E3A9"></path><path d="M235.51,305.05l5.67-3.36-54.86-30.83,22.15-12.79c.83-.48.33-1.31-.84-1.38L128,251.47l-20.23-11.68c-4.4-.08-6.28.53-5.74,3.31l22.23,12.84,68.62,4.5L174.76,270.9Z" style="fill:#92E3A9"></path><path d="M124,255.8l7.14-4.12,76.46,5c1.17.07,1.67.9.84,1.38l-22.15,12.79,54.86,30.83-5.67,3.36L174.76,270.9l18.13-10.46-68.62-4.5Z" style="fill:#92E3A9"></path><path d="M176.36,250.29a12.84,12.84,0,0,0,11.61,0c3.21-1.85,3.21-4.86,0-6.71a12.84,12.84,0,0,0-11.61,0C173.15,245.43,173.15,248.44,176.36,250.29Z" style="fill:#92E3A9"></path><path d="M148.39,248.47a12.86,12.86,0,0,0,11.62,0c3.21-1.85,3.21-4.85,0-6.71a12.86,12.86,0,0,0-11.62,0C145.18,243.62,145.18,246.62,148.39,248.47Z" style="fill:#92E3A9"></path><path d="M103.87,264.26a12.86,12.86,0,0,0,11.62,0c3.21-1.85,3.21-4.86,0-6.71a12.86,12.86,0,0,0-11.62,0C100.67,259.4,100.67,262.41,103.87,264.26Z" style="fill:#92E3A9"></path><path d="M129.23,300.55a12.84,12.84,0,0,0,11.61,0c3.21-1.86,3.21-4.86,0-6.71a12.84,12.84,0,0,0-11.61,0C126,295.69,126,298.69,129.23,300.55Z" style="fill:#92E3A9"></path><path d="M169.91,285.68a12.86,12.86,0,0,0,11.62,0c3.21-1.85,3.21-4.85,0-6.71a12.86,12.86,0,0,0-11.62,0C166.7,280.83,166.7,283.83,169.91,285.68Z" style="fill:#92E3A9"></path><path d="M148,273a12.86,12.86,0,0,0,11.62,0c3.21-1.85,3.21-4.85,0-6.71a12.86,12.86,0,0,0-11.62,0C144.77,268.17,144.77,271.17,148,273Z" style="fill:#92E3A9"></path><path d="M99.93,245.28a12.84,12.84,0,0,0,11.61,0c3.21-1.86,3.21-4.86,0-6.71a12.84,12.84,0,0,0-11.61,0C96.72,240.42,96.72,243.42,99.93,245.28Z" style="fill:#92E3A9"></path><polygon points="150.84 270.38 157.75 269.93 154.56 253.68 147.46 253.17 150.84 270.38" style="fill:#92E3A9"></polygon><path d="M131.31,300.75l-5.43-27.65L107.7,262.6l4.92-2.84L133.84,272l4,20.23,18.13-10.47,59.15,35.08-5.82,3.26-53.41-31.66L133.7,301.24C132.87,301.72,131.44,301.42,131.31,300.75Z" style="fill:#92E3A9"></path><polygon points="230.13 317.06 235.87 313.74 181.33 282.25 175.59 285.56 230.13 317.06" style="fill:#92E3A9"></polygon><polygon points="478.08 412.65 401.37 456.95 191.64 325.43 197.39 322.11 200.82 324.26 208.64 319.75 214.37 316.44 222.78 321.3 230.13 317.06 235.87 313.74 227.61 308.97 234.95 304.72 240.7 301.41 236.91 299.3 250.38 291.52 478.08 412.65" style="fill:#92E3A9"></polygon><path d="M250.38,291.52l-39.73-21.14,31.69-18.31c2.17-1.26.87-3.41-2.19-3.61l-50.37-3.29a5.2,5.2,0,0,0-1.81-1.58,12.78,12.78,0,0,0-11.61,0c-3.21,1.85-3.21,4.85,0,6.7a12.84,12.84,0,0,0,11.61,0,8.18,8.18,0,0,0,.72-.48l41.4,2.7-31.15,18,45.69,24.31-7.71,4.45,3.78,2.12h0l-3.77-2.13h0l-50.59-28.43,22.15-12.79c.83-.48.33-1.31-.84-1.38L128,251.47l-11-6.34,29.7,2a5.86,5.86,0,0,0,1.66,1.39,12.8,12.8,0,0,0,11.62,0c3.21-1.85,3.21-4.85,0-6.7a12.8,12.8,0,0,0-11.62,0,5.9,5.9,0,0,0-.93.65l-34.09-2.24a5.51,5.51,0,0,0-1.82-1.62,12.92,12.92,0,0,0-11.62,0c-3.21,1.86-3.21,4.86,0,6.72a12.65,12.65,0,0,0,8,1.19L124,255.8l.25.14,24,1.58,1.57,8a10,10,0,0,0-1.89.8c-3.22,1.85-3.22,4.86,0,6.71a12.78,12.78,0,0,0,11.61,0c3.2-1.85,3.2-4.86,0-6.71a9.75,9.75,0,0,0-2.77-1L155.41,258l37.48,2.46L174.77,270.9,235,304.73,227.61,309l-44-25.38c.77-1.6.06-3.37-2.1-4.61a12.8,12.8,0,0,0-11.62,0c-3.21,1.85-3.21,4.85,0,6.7a12.74,12.74,0,0,0,8,1.21l52.26,30.17-7.35,4.24-7.7-4.45-59.15-35.07L137.8,292.24l-4-20.23-16.45-9.49c1-1.68.42-3.62-1.91-5a12.8,12.8,0,0,0-11.62,0c-3.2,1.84-3.2,4.85,0,6.7a10,10,0,0,0,2.55,1l10.63,54.27c.35,1.77,4.08,2.52,6.26,1.27L155,302.5l36.61,22.93L401.37,457l76.71-44.3Zm-49.56,32.74-3.41-2.14-42.14-26.39-31.19,18-9.19-47,11,6.35,4,20.42c-.22.11-.46.2-.67.32-3.2,1.85-3.2,4.85,0,6.7a12.82,12.82,0,0,0,11.63,0c2.17-1.26,2.86-3,2.08-4.64l12.92-7.45,52.79,31.3Z" style="fill:#fff;opacity:0.4"></path></g></g><g id="freepik--Chip--inject-192"><g id="freepik--chip--inject-192"><g id="freepik--Shadow--inject-192"><path d="M28.82,132.65l-.25,83.44c0,1.55,1.07,2.18,2.41,1.41l72.67-41.66a5.32,5.32,0,0,0,2.42-4.19V88.06c0-1.54-1.08-2.17-2.42-1.4l-72.4,41.8A5.4,5.4,0,0,0,28.82,132.65Z" style="fill:#92E3A9;opacity:0.15"></path><path d="M35.26,135.9l-.21,69.54c0,1.28.89,1.81,2,1.17l60.55-34.72a4.43,4.43,0,0,0,2-3.49V98.74c0-1.28-.9-1.81-2-1.16L37.29,132.41A4.45,4.45,0,0,0,35.26,135.9Z" style="fill:#92E3A9;opacity:0.25"></path><path d="M40.63,138.61l-.18,57.95c0,1.07.74,1.5,1.67,1L92.59,168.6a3.68,3.68,0,0,0,1.68-2.9V107.64c0-1.07-.75-1.5-1.68-1l-50.28,29A3.7,3.7,0,0,0,40.63,138.61Z" style="fill:#92E3A9;opacity:0.15"></path><g style="opacity:0.5"><path d="M41.37,198.53a1.71,1.71,0,0,1-.83-.21,2,2,0,0,1-.87-1.77l.18-57.94A4.54,4.54,0,0,1,41.92,135L92.2,106a1.79,1.79,0,0,1,2.85,1.64V165.7A4.49,4.49,0,0,1,93,169.28L42.51,198.21A2.38,2.38,0,0,1,41.37,198.53Zm52-91.31a.7.7,0,0,0-.36.13l-50.28,29a3,3,0,0,0-1.3,2.24h0l-.18,57.95c0,.29.09.4.11.41s.16,0,.41-.11L92.2,167.93a2.94,2.94,0,0,0,1.29-2.23V107.64c0-.29-.08-.4-.1-.41ZM40.63,138.61h0Z" style="fill:#92E3A9"></path></g><path d="M41.38,198.15a1.28,1.28,0,0,1-.64-.17,1.56,1.56,0,0,1-.68-1.43l.18-57.94a4.11,4.11,0,0,1,1.88-3.25l50.27-29a1.52,1.52,0,0,1,1.58-.12,1.54,1.54,0,0,1,.69,1.42V165.7a4.08,4.08,0,0,1-1.88,3.24L42.32,197.87A2,2,0,0,1,41.38,198.15Zm52-91.32a1.14,1.14,0,0,0-.56.18L42.51,136a3.39,3.39,0,0,0-1.5,2.58h0l-.18,57.95a.84.84,0,0,0,.3.75.82.82,0,0,0,.8-.12l50.46-28.92a3.33,3.33,0,0,0,1.49-2.57V107.64a.83.83,0,0,0-.3-.75A.48.48,0,0,0,93.34,106.83ZM40.63,138.61h0Z" style="fill:#92E3A9"></path><g style="opacity:0.1"><path d="M40.63,138.61l-.18,57.95c0,1.07.74,1.5,1.67,1L92.59,168.6a3.68,3.68,0,0,0,1.68-2.9V107.64c0-1.07-.75-1.5-1.68-1l-50.28,29A3.7,3.7,0,0,0,40.63,138.61Z" style="fill:#92E3A9;opacity:0.5"></path></g><path d="M44,140.33l-.15,50.6c0,.94.65,1.32,1.46.85L89.4,166.52A3.24,3.24,0,0,0,90.87,164v-50.7c0-.94-.65-1.32-1.47-.85L45.5,137.78A3.3,3.3,0,0,0,44,140.33Z" style="opacity:0.2"></path></g><g id="freepik--chip--inject-192"><path d="M94.3,134.1,92,130l12.84-7.43h0a2.35,2.35,0,0,1,2.34,4.07h0Z" style="fill:#92E3A9"></path><path d="M94.31,144.31,92,140.25l12.85-7.43h0a2.35,2.35,0,1,1,2.35,4.06h0Z" style="fill:#92E3A9"></path><path d="M94.31,154.53,92,150.46,104.81,143h0a2.35,2.35,0,1,1,2.35,4.06h0Z" style="fill:#92E3A9"></path><path d="M94.32,164.75,92,160.68l12.85-7.43h0a2.35,2.35,0,0,1,2.35,4.07h0Z" style="fill:#92E3A9"></path><g style="opacity:0.8"><path d="M94.3,134.1,92,130l12.84-7.43h0a2.35,2.35,0,0,1,2.34,4.07h0Z" style="fill:#fff"></path><path d="M94.31,144.31,92,140.25l12.85-7.43h0a2.35,2.35,0,1,1,2.35,4.06h0Z" style="fill:#fff"></path><path d="M94.31,154.53,92,150.46,104.81,143h0a2.35,2.35,0,1,1,2.35,4.06h0Z" style="fill:#fff"></path><path d="M94.32,164.75,92,160.68l12.85-7.43h0a2.35,2.35,0,0,1,2.35,4.07h0Z" style="fill:#fff"></path></g><g style="opacity:0.2"><polygon points="94.3 134.1 91.96 130.03 102.88 123.72 102.88 129.14 94.3 134.1" style="fill:#92E3A9"></polygon><polygon points="102.88 154.38 102.88 159.8 94.32 164.75 91.97 160.68 102.88 154.38" style="fill:#92E3A9"></polygon><polygon points="94.31 154.53 91.97 150.47 102.88 144.16 102.88 149.58 94.31 154.53" style="fill:#92E3A9"></polygon><polygon points="94.31 144.31 91.96 140.25 102.88 133.94 102.88 139.36 94.31 144.31" style="fill:#92E3A9"></polygon></g><path d="M65.24,184.44H60.55l0,14.84h0a2.35,2.35,0,0,0,4.7,0h0Z" style="fill:#92E3A9"></path><path d="M74.09,179.34H69.4l0,14.83h0a2.35,2.35,0,0,0,4.7,0h0Z" style="fill:#92E3A9"></path><path d="M82.94,174.23h-4.7v14.84h0a2.35,2.35,0,0,0,4.7,0h0Z" style="fill:#92E3A9"></path><path d="M91.79,169.13H87.1l0,14.83h0a2.35,2.35,0,1,0,4.7,0h0Z" style="fill:#92E3A9"></path><g style="opacity:0.8"><path d="M65.24,184.44H60.55l0,14.84h0a2.35,2.35,0,0,0,4.7,0h0Z" style="fill:#fff"></path><path d="M74.09,179.34H69.4l0,14.83h0a2.35,2.35,0,0,0,4.7,0h0Z" style="fill:#fff"></path><path d="M82.94,174.23h-4.7v14.84h0a2.35,2.35,0,0,0,4.7,0h0Z" style="fill:#fff"></path><path d="M91.79,169.13H87.1l0,14.83h0a2.35,2.35,0,1,0,4.7,0h0Z" style="fill:#fff"></path></g><g style="opacity:0.2"><polygon points="65.24 184.44 60.55 184.44 60.55 197.05 65.24 194.34 65.24 184.44" style="fill:#92E3A9"></polygon><polygon points="87.09 181.72 91.79 179.02 91.79 169.13 87.09 169.13 87.09 181.72" style="fill:#92E3A9"></polygon><polygon points="82.94 174.23 78.25 174.23 78.25 186.84 82.94 184.13 82.94 174.23" style="fill:#92E3A9"></polygon><polygon points="74.09 179.34 69.39 179.34 69.39 191.94 74.09 189.24 74.09 179.34" style="fill:#92E3A9"></polygon></g><path d="M55.63,194.51a2,2,0,0,1-.82-1.83V148.1a5.73,5.73,0,0,1,.83-2.77l-9.44-5.45a5.83,5.83,0,0,0-.83,2.79v42.64a6.25,6.25,0,0,0,2.83,4.9Z" style="fill:#92E3A9"></path><path d="M55.63,194.51a2,2,0,0,1-.82-1.83V148.1a5.73,5.73,0,0,1,.83-2.77l-9.44-5.45a5.83,5.83,0,0,0-.83,2.79v42.64a6.25,6.25,0,0,0,2.83,4.9Z" style="opacity:0.30000000000000004"></path><path d="M57.64,143.2l38.58-22.26c1.57-.9,2.83-.17,2.83,1.63v44.56a6.22,6.22,0,0,1-2.83,4.9L57.63,194.31c-1.56.9-2.83.17-2.83-1.63V148.1A6.26,6.26,0,0,1,57.64,143.2Z" style="fill:#92E3A9"></path><path d="M57.64,143.2l38.58-22.26c1.57-.9,2.83-.17,2.83,1.63v44.56a6.22,6.22,0,0,1-2.83,4.9L57.63,194.31c-1.56.9-2.83.17-2.83-1.63V148.1A6.26,6.26,0,0,1,57.64,143.2Z" style="fill:#fff;opacity:0.30000000000000004"></path><path d="M98.14,120.7l-7.36-4.25a6.24,6.24,0,0,0-5.66,0L48.19,137.77a5.74,5.74,0,0,0-2,2.11l9.44,5.45a5.72,5.72,0,0,1,2-2.13l38.59-22.26A2,2,0,0,1,98.14,120.7Z" style="fill:#92E3A9"></path><path d="M98.18,120.72l-7.4-4.27a6.24,6.24,0,0,0-5.66,0L48.19,137.77a5.74,5.74,0,0,0-2,2.11l9.44,5.45a5.65,5.65,0,0,1,2-2.1L96.26,121A2.05,2.05,0,0,1,98.18,120.72Z" style="opacity:0.15"></path><path d="M61.1,186.35a1.25,1.25,0,0,1-.66-.17,1.64,1.64,0,0,1-.72-1.5V150a4.35,4.35,0,0,1,2-3.44l30-17.32a1.63,1.63,0,0,1,1.66-.13,1.66,1.66,0,0,1,.72,1.5v34.68a4.34,4.34,0,0,1-2,3.45l-30,17.34A2,2,0,0,1,61.1,186.35Zm31.64-56.66a1.22,1.22,0,0,0-.6.19l-30,17.32A3.59,3.59,0,0,0,60.5,150v34.71a.92.92,0,0,0,.33.83.93.93,0,0,0,.88-.13L91.76,168a3.6,3.6,0,0,0,1.59-2.77V130.58a.92.92,0,0,0-.33-.83A.61.61,0,0,0,92.74,129.69Z" style="fill:#fff"></path><path d="M66.54,176.18a.76.76,0,0,1-.39-.1.91.91,0,0,1-.41-.82l.08-22.95a2.37,2.37,0,0,1,1-1.64l19.74-11.39a.9.9,0,0,1,.92-.06.94.94,0,0,1,.42.83v22.79a2.06,2.06,0,0,1-.94,1.64L67.08,176A1.1,1.1,0,0,1,66.54,176.18ZM87,139.89a.71.71,0,0,0-.14.06L67.16,151.34a1.76,1.76,0,0,0-.57,1l-.07,22.94a.24.24,0,0,0,0,.15.33.33,0,0,0,.14,0L86.5,163.81a1.29,1.29,0,0,0,.57-1V140.05A.45.45,0,0,0,87,139.89Z" style="fill:#fff"></path><path d="M38,161.46a2.34,2.34,0,1,1-2.34-4.06L48,150.33a1.17,1.17,0,0,1,1.18.11,3.7,3.7,0,0,1,1.66,2.88,1.16,1.16,0,0,1-.49,1.07h0Z" style="fill:#92E3A9"></path><path d="M38,171.68a2.35,2.35,0,1,1-2.35-4.07h0L48,160.54a1.18,1.18,0,0,1,1.17.12,3.67,3.67,0,0,1,1.66,2.87,1.16,1.16,0,0,1-.49,1.08h0L38,171.68Z" style="fill:#92E3A9"></path><path d="M38,181.89a2.35,2.35,0,0,1-2.35-4.06h0L48,170.76h0a1.18,1.18,0,0,1,1.18.12,3.68,3.68,0,0,1,1.66,2.87,1.16,1.16,0,0,1-.49,1.07h0L38,181.89Z" style="fill:#92E3A9"></path><path d="M34.83,191.25a2.34,2.34,0,0,1,.86-3.2h0L48,181a1.15,1.15,0,0,1,1.17.11A3.67,3.67,0,0,1,50.87,184a1.16,1.16,0,0,1-.49,1.07h0L38,192.11A2.35,2.35,0,0,1,34.83,191.25Z" style="fill:#92E3A9"></path><path d="M60.8,122a2.35,2.35,0,0,0-4.7,0l0,14.22a1.16,1.16,0,0,0,.69,1,3.66,3.66,0,0,0,3.32,0,1.16,1.16,0,0,0,.69-1h0Z" style="fill:#92E3A9"></path><path d="M69.65,116.91a2.35,2.35,0,0,0-4.7,0h0l0,14.23a1.17,1.17,0,0,0,.69,1,3.66,3.66,0,0,0,3.32,0,1.17,1.17,0,0,0,.69-1h0l0-14.23Z" style="fill:#92E3A9"></path><path d="M78.5,111.81a2.35,2.35,0,1,0-4.7,0h0l0,14.23h0a1.16,1.16,0,0,0,.69.95,3.66,3.66,0,0,0,3.32,0,1.16,1.16,0,0,0,.69-.95h0l0-14.23Z" style="fill:#92E3A9"></path><path d="M85,104.36a2.35,2.35,0,0,0-2.35,2.34h0l0,14.23a1.17,1.17,0,0,0,.69,1,3.66,3.66,0,0,0,3.32,0,1.16,1.16,0,0,0,.69-1h0l-.05-14.23A2.35,2.35,0,0,0,85,104.36Z" style="fill:#92E3A9"></path><g style="opacity:0.8"><path d="M38,161.46a2.34,2.34,0,1,1-2.34-4.06L48,150.33a1.17,1.17,0,0,1,1.18.11,3.7,3.7,0,0,1,1.66,2.88,1.16,1.16,0,0,1-.49,1.07h0Z" style="fill:#fff"></path><path d="M38,171.68a2.35,2.35,0,1,1-2.35-4.07h0L48,160.54a1.18,1.18,0,0,1,1.17.12,3.67,3.67,0,0,1,1.66,2.87,1.16,1.16,0,0,1-.49,1.08h0L38,171.68Z" style="fill:#fff"></path><path d="M38,181.89a2.35,2.35,0,0,1-2.35-4.06h0L48,170.76h0a1.18,1.18,0,0,1,1.18.12,3.68,3.68,0,0,1,1.66,2.87,1.16,1.16,0,0,1-.49,1.07h0L38,181.89Z" style="fill:#fff"></path><path d="M34.83,191.25a2.34,2.34,0,0,1,.86-3.2h0L48,181a1.15,1.15,0,0,1,1.17.11A3.67,3.67,0,0,1,50.87,184a1.16,1.16,0,0,1-.49,1.07h0L38,192.11A2.35,2.35,0,0,1,34.83,191.25Z" style="fill:#fff"></path><path d="M60.8,122a2.35,2.35,0,0,0-4.7,0l0,14.22a1.16,1.16,0,0,0,.69,1,3.66,3.66,0,0,0,3.32,0,1.16,1.16,0,0,0,.69-1h0Z" style="fill:#fff"></path><path d="M69.65,116.91a2.35,2.35,0,0,0-4.7,0h0l0,14.23a1.17,1.17,0,0,0,.69,1,3.66,3.66,0,0,0,3.32,0,1.17,1.17,0,0,0,.69-1h0l0-14.23Z" style="fill:#fff"></path><path d="M78.5,111.81a2.35,2.35,0,1,0-4.7,0h0l0,14.23h0a1.16,1.16,0,0,0,.69.95,3.66,3.66,0,0,0,3.32,0,1.16,1.16,0,0,0,.69-.95h0l0-14.23Z" style="fill:#fff"></path><path d="M85,104.36a2.35,2.35,0,0,0-2.35,2.34h0l0,14.23a1.17,1.17,0,0,0,.69,1,3.66,3.66,0,0,0,3.32,0,1.16,1.16,0,0,0,.69-1h0l-.05-14.23A2.35,2.35,0,0,0,85,104.36Z" style="fill:#fff"></path></g></g></g></g><g id="freepik--shadow--inject-192"><path id="freepik--shadow--inject-192" d="M468.41,418.23l-55,31.78C369.69,419.33,308,376,305,373.82c-5.68-4-7.46-8.17-7.22-11.46s1.22-7,8.07-10.41a26,26,0,0,1,6.31-2.2,27.45,27.45,0,0,1,9.3-.08,55.82,55.82,0,0,1,14.64,4.38C339.43,355.5,419.73,395,468.41,418.23Z" style="fill:#263238"></path></g><g id="freepik--Character--inject-192"><g id="freepik--character--inject-192"><g id="freepik--character--inject-192"><path id="freepik--Arm--inject-192" d="M391,197l-8.17-21.41c-3.87-11-11.65-19,.58-25.6,5.12.09,7.53,1.91,10.64,8s8.93,27.79,10.27,32.45A43.37,43.37,0,0,1,406,203c.1,5.37-1.61,15.21-2.15,20.54-.25,2.47-.31,4.84-.39,7.34a56.13,56.13,0,0,1-1.27,7.66,7.06,7.06,0,0,1-1.62,3.27c-.52.6-1.31.77-1.8,1.33s-.51,1.41-1.23,1.92-1.84.44-2.54,1a23.93,23.93,0,0,1-2.11,1.88,4.84,4.84,0,0,0-1.82,1.44c-.41.62-.71,1.91-1.62,2s-1.32-.9-1.5-1.73a7.76,7.76,0,0,1,.92-4.75,43.54,43.54,0,0,1,2.28-4.59,10.75,10.75,0,0,0,1.5-4.55c.16-1.09-.13-2.4-1.38-1.59-1.47.94-2.91,2.69-4.85,2.65-1.34,0-1.56-1.05-.93-2a38.89,38.89,0,0,0,2.76-5c.82-1.77,1.44-3.62,2.3-5.36a23.61,23.61,0,0,1,1.58-2.64c1.6-2.37,1.1-5.2.92-7.88C392.84,210.08,391.6,201.77,391,197Z" style="fill:#ffbda7"></path><g id="freepik--arm--inject-192"><path d="M388.28,229.69c1.08-2.62,1.94-5.34,3.53-7.72s1.26-5.34,1-8.1-.62-5.6-1-8.4l-1.15-8.41c-1.25-3.23-2.72-7.19-4-10.67s-2.61-7.18-3.9-10.78q4.35,10.62,8.44,21.34c.79,5.62,1.67,11.22,2.12,16.89.22,2.77.55,5.95-1.26,8.31a45.51,45.51,0,0,0-3.8,7.54Z" style="fill:#fff"></path></g><path d="M377.92,149.31c8.49-.94,12.33.95,14.81,5.53s6.73,15.38,9.13,25.52c-3.54,5.08-15.75,7.36-15.75,7.36l-5.47-14.57Z" style="fill:#455a64"></path><path d="M406,203c.1,5.37-1.6,15.22-2.14,20.54-.25,2.47-.31,4.84-.4,7.33s-.84,5.09-1.27,7.67a6.89,6.89,0,0,1-1.63,3.27c-.51.59-1.3.77-1.79,1.34s-.52,1.4-1.23,1.9-1.85.44-2.53,1a24.08,24.08,0,0,1-2.12,1.88,4.82,4.82,0,0,0-1.82,1.43c-.31.48-.56,1.34-1.07,1.73a3.87,3.87,0,0,1-.32-1.34c-.13-2.46,1.89-4.4,3.26-6.43,3.46-5.18,2.93-11.92,3.4-18.12.41-5.49,1.71-10.93,1.33-16.43a50.15,50.15,0,0,0-2.88-12.29A158.86,158.86,0,0,0,384.25,171a97.25,97.25,0,0,0-7.15-11.57c-.12-.15-.23-.31-.33-.46a7.64,7.64,0,0,1,1.67-5.07l-.51-4.56c8.49-.95,12.32,1,14.8,5.53s6.73,15.38,9.13,25.52c-.1.14-.21.29-.33.43,1.26,4.38,2.27,8.08,2.74,9.71A43.07,43.07,0,0,1,406,203Z" style="opacity:0.30000000000000004"></path><g id="freepik--Bottom--inject-192"><path d="M292.43,350.82c-.59-.26-1.09,1.24-.94,2.08.43,2.43,2.75,5.64,6.9,8.06s13.24,4.07,15.92,4.83,6.81,3.57,9.31,4.84c4.55,2.33,8.26,2.06,10.33,1a3.12,3.12,0,0,0,1.39-2.06c.55-1.84.5-2.26.3-2.31Z" style="fill:#37474f"></path><path d="M336.83,361.8a24,24,0,0,1-1.7,6.72,5.24,5.24,0,0,1-4,1.46,19.28,19.28,0,0,1-9.69-3.07,26.59,26.59,0,0,0-6.56-3c-2.77-.73-9-2.06-11.75-2.91a19.66,19.66,0,0,1-7-3.85c-1.53-1.42-3.67-4.17-3.83-5.77.46-3.47,1.43-5.31,3.68-5.81s5.3.16,9.34,1.13c1.21.3,2.72.71,3.38.84,2.47.51,4.76,1.05,6.61,1.53a10.88,10.88,0,0,0,4.77.46,3.15,3.15,0,0,0,1.93-.95c.65-.72,1-1.94,1.79-1.77,0,0,12.77,6.65,13.82,7.12C338.81,354.48,337.41,356,336.83,361.8Z" style="fill:#455a64"></path><path d="M292.27,351.4c.1-8.52,7.37-6.52,13-4.68l-4.16-.7c-5.29-.88-7.84-.35-8.86,5.38Z" style="fill:#fff"></path><path d="M307.66,347.1a3.94,3.94,0,0,0-1.37.86,6.76,6.76,0,0,0-1.13,1.37c-.4.63.4,1,1,.36a8.87,8.87,0,0,1,1.57-1.56,2.22,2.22,0,0,1,1.45-.46l.7.15C309.86,347.25,308.3,346.92,307.66,347.1Z" style="fill:#fafafa"></path><path d="M314,348.36a1.71,1.71,0,0,0-1.4,0,3.36,3.36,0,0,0-1.42,1.11,14.51,14.51,0,0,0-1.2,1.87c-.19.42.86.74,1.13.3a18.42,18.42,0,0,1,1.13-1.69c.22-.27,1.13-1.25,1.89-1.14l.33.09c.05-.16-.12-.33-.25-.41Z" style="fill:#fafafa"></path><path d="M317.59,349.41a1.42,1.42,0,0,0-.93.2,3.85,3.85,0,0,0-.91.89,7.66,7.66,0,0,0-1,2.08c-.2.57.89.75,1,.38a5.86,5.86,0,0,1,1.61-2.64,2.73,2.73,0,0,1,1.2-.65c0-.12-.15-.18-.25-.19A6.34,6.34,0,0,0,317.59,349.41Z" style="fill:#fafafa"></path><path d="M342.65,339.78s-4,12.16-5.23,14.93c-.39.89-2.24.7-3.26.8a11.52,11.52,0,0,0-3.64.77c-3,1.52-4.88,1.5-5-2.89,0-.9-.43-1.42-1.53-1.56a6.69,6.69,0,0,1-2.45-.43c-.09-.12,0-.28.16-.37a4.08,4.08,0,0,0,1.83-2.86c1.25-5.2,1.9-9.69,3.26-16.08Z" style="fill:#ffbda7"></path><path d="M391,358.94c-1.73-2.76-2.66-8.08-6.46-18.88l-14.78,12.12,8.77,13.93a12.49,12.49,0,0,1,.63,2.2C381,371,391,358.94,391,358.94Z" style="fill:#ffbda7"></path><path d="M396.2,364.83c0-.16.06-1.46,0-1.62-.37-1.4-1.23-1.79-2.34-2.57a16.75,16.75,0,0,1-3.07-2.63c-.38-.51-.45-.78-1-1a5.41,5.41,0,0,0-4.51.59c-3.2,1.68-4.17,3.7-4,5.89.14,1.67.28,3.89-1.19,4.88-.62.42-1.58-2.25-1.58-2.25-.91,1.52.36,3.63,1,6.71a12.72,12.72,0,0,1,.09,5.18c-.32,2.71-.7,2.7-2.14,2.89-1.23.16-4.74-.08-6.88,1.41a4.55,4.55,0,0,0-2.16,4.8c.38,1,3.59,6.08,15.28,4.2,3.39-.55,10.52-5.88,10.41-6.38a6.54,6.54,0,0,1,0-1.53c0-1.2.09-2.39.14-3.59a18.39,18.39,0,0,1,.2-3.41,19.14,19.14,0,0,0,.43-2.83c.23-2.4.45-4.8.68-7.2C395.68,365.67,396.29,365.51,396.2,364.83Z" style="fill:#455a64"></path><path d="M377.49,380.89c-3.87.45-9.32,1.09-9,6.21-.75-2.15.73-4.51,2.69-5.45s4.22-.83,6.35-.76Z" style="fill:#fff"></path><path d="M397.67,364.35c1.15,1.12.45,4.36-1.09,8.24-.69,1.73-2,4.7-1.59,7.85s.44,4.65-.38,6.12c-1.27,2.32-8.07,5.28-12.07,6.2a22.1,22.1,0,0,0,4.07-11.57c.4-7,.94-11.45,4.12-14.54C394.76,362.75,397.67,364.35,397.67,364.35Z" style="fill:#263238"></path><path d="M368.45,387.1s2.35,4.39,11.4,4.25c3.56-.06,5.46-1.8,5.55-7.21.11-6.52.63-13.11,2.74-16.35s5.47-4.81,8.08-4.58a2.51,2.51,0,0,1,1.45,1.14s-2.61-.85-6.67,2.51c-3,2.49-3.81,7.69-3.76,14.14,0,2.77.19,5.92-.63,8a6.43,6.43,0,0,1-4.32,3.81c-4.92,1.38-11.65-.9-13.35-3A3.24,3.24,0,0,1,368.45,387.1Z" style="fill:#37474f"></path><path d="M379.32,379.7a1.87,1.87,0,0,0-.73,1.08,3.09,3.09,0,0,0,1.43,2.83c.54.34,1,.22.15-.92A5.62,5.62,0,0,1,379.32,379.7Z" style="fill:#fafafa"></path><path d="M379.81,376.32s-.29.19-.36,1.1a4.46,4.46,0,0,0,1.67,2.91c.95.46.44-.63,0-1.17A7.11,7.11,0,0,1,379.81,376.32Z" style="fill:#fafafa"></path><path d="M379.49,372.59s-.31.09,0,1.34a4,4,0,0,0,2,1.73c.61.07.91-.24.16-.78C381.05,374.45,379.6,373.2,379.49,372.59Z" style="fill:#fafafa"></path><path d="M352.29,219.49s-6.12,7.33-9.81,21a318.43,318.43,0,0,0-7.64,38.74c-.88,5.84-1.53,10-3.12,20.64-1.32,8.86-7.14,41.81-7.14,41.81s1.47,2.63,7.38,5.32c3.25,1.49,7.31,1.49,8.54,1,0,0,3.89-9.49,9.47-23.15,3.84-9.39,5.88-14.6,6.77-19.15a45.17,45.17,0,0,0,.49-12.38L383,249.22a29.25,29.25,0,0,0,5.11-8.82c3.6-9-.23-25-.23-25Z" style="fill:#263238"></path><path d="M334.84,279.28c-2.55,20.6-6.39,42.05-10.26,62.45,3.09-20.54,6.92-42,10.26-62.45Z" style="fill:#fff"></path><path d="M345.62,231.36a70.82,70.82,0,0,0-3.14,9.18,300.51,300.51,0,0,0-7.25,36.16c.84,5.17,2,11.38,2.67,14.55,2.26,10.26,3.67,17.5,5.46,21.73s6.87,11.21,6.89,11.24c3.66-9,5.62-14,6.49-18.48a45.17,45.17,0,0,0,.49-12.38l18.51-31.72,1.3-10.37c5.08-8.28,4.51-14.48,2.19-19.91Z"></path><path d="M361.23,261.82c-.91-2.19-2.19-4.43-4.34-5.46s-6.73-1.73-6.95.64c-.76,8.24-3.25,16.21-5.2,24.26-5.15,21.2-6.66,43.15-11.91,64.32-.78,3.18-1.74,6.49-4,8.84-3.64,3.77-9.49,4-14.73,4-4,0-8.07,0-11.94-1s-7.6-3.23-9.6-6.7c-.06-.1-.12-.21-.19-.31,0,.13,0,.24,0,.38-.54,0-1,1.31-.82,2.09.43,2.43,2.75,5.64,6.9,8.06s13.25,4.07,15.92,4.83,6.81,3.57,9.31,4.84c4.55,2.33,8.26,2.06,10.33,1a3.12,3.12,0,0,0,1.39-2.06c.55-1.84.5-2.26.3-2.31h0a26.11,26.11,0,0,0,1.21-5.49c.56-5.57,1.88-7.2.88-7.79.52-1.32,1.3-3.52,2.09-5.79a3.91,3.91,0,0,0,.7-.18s3.89-9.49,9.47-23.15l.9-2.19c0-.1.07-.19.11-.28.17-.43.35-.85.51-1.26.05-.11.09-.22.13-.32l.47-1.16c0-.11.08-.22.13-.33.14-.37.29-.73.43-1.08l.12-.31c.13-.34.27-.68.39-1,0-.11.09-.23.14-.34.12-.31.24-.62.35-.92a3.42,3.42,0,0,1,.13-.34c.11-.29.22-.58.32-.86l.12-.34.3-.8.12-.35c.09-.25.18-.5.26-.74l.12-.35c.08-.23.16-.46.23-.69l.12-.34.21-.66.1-.34c.06-.21.13-.41.19-.61s.07-.26.11-.38l.15-.54c0-.15.07-.29.11-.43l.12-.46c0-.16.07-.31.11-.46s.06-.28.1-.41l.12-.59a2.38,2.38,0,0,0,.05-.26,38.15,38.15,0,0,0,.56-4.28c.08-1,.13-2.1.14-3.19a44.8,44.8,0,0,0-.21-4.91l7.5-12.86C364.45,274.07,363.7,267.74,361.23,261.82Z" style="opacity:0.30000000000000004"></path><path d="M373.53,219.49a26.36,26.36,0,0,1,6.22,15.57,23.28,23.28,0,0,1-4.92,15.38c-1.28,18.73-4.35,54.61-4.35,54.61,4.95,5.1,6,8.82,8.88,17.95,1.74,5.55,7.23,22.67,9.08,28.33-8.81,1.32-13.78,9.18-13.78,9.18s-14.3-22-22.07-35c-6.17-10.32-7.51-13.52-9-19.34-1.18-4.46-2.36-11.71-4.14-23.9s-3.31-25.86-4.49-39.73c-1-12-1.35-24.18-1.35-24.18Z" style="fill:#263238"></path><path d="M374.66,360.51c-6.94-10.53-13.81-21.1-20.4-31.86-3.24-5.42-6.68-10.74-9.1-16.6s-3.3-12.23-4.34-18.43q-4.43-28-6.46-56.38-.58-9.44-.8-18.9c.47,12.6,1.49,25.17,2.82,37.71s3,25,5,37.47c1,6.21,1.95,12.48,4.21,18.34s5.79,11.18,9,16.58c5.69,9.44,14.13,22.62,20.06,32.07Z" style="fill:#fff"></path><path d="M389.4,234.17a7.45,7.45,0,0,1-3.59-2.55,10.4,10.4,0,0,1-.93-2.65,28.53,28.53,0,0,0-1.51-4.5l-.93.41a27.71,27.71,0,0,1,1.46,4.35,10.65,10.65,0,0,0,1.05,2.93,8.23,8.23,0,0,0,4.37,3C389.35,234.85,389.38,234.51,389.4,234.17Z"></path><path d="M365.35,244.9a2.93,2.93,0,0,0,.65-.06c1.47-.33,2.61-1.31,4.89-4.23,1.73-2.21,1.55-3.8,1.26-6.44-.11-1-1.13-6.15-1.19-7.51l-1,.54c.06,1.39,1,6.1,1.15,7.08.29,2.62.43,3.82-1.05,5.71-2.11,2.69-3.11,3.59-4.31,3.86s-6.3-.59-7.67-1.54c-.79-.55-2.12-7.32-2.89-13.27l-1,.13c.39,3,1.79,12.91,3.32,14C358.89,244.08,363.31,245,365.35,244.9Z"></path></g><g id="freepik--Top--inject-192"><path d="M387.36,154.78c3.43,6.56,3,12.44,2,21.64-.91,8.49-1.92,18.79-1.92,24.26A111.76,111.76,0,0,0,389,220.56s-1.62,4.74-16.57,8.55c-26.28,6.69-38.89-.94-38.89-.94s-.63-14.8.39-34.15c1.14-21.69,1.52-24.86,3.19-30a13.47,13.47,0,0,1,6.73-6.85c2.6-1.18,8.85-3.23,12.56-4.66,8.63-3.33,18.6-3.12,18.6-3.12C382.51,148.87,385.57,151.38,387.36,154.78Z" style="fill:#92E3A9"></path><path d="M355.78,145.06l.71,8c4.36,1,15,.27,17-2.44l-.42-7.31Z" style="fill:#ffbda7"></path><path d="M344.41,124.61s-2,1.54-3.56,6.83l3,2.21C344.84,129.93,345.9,126.14,344.41,124.61Z" style="fill:#f0997a"></path><path d="M348.25,103.57a13.17,13.17,0,0,0-4.26,2.77,6.36,6.36,0,0,0-1.87,4.61,5.65,5.65,0,0,0,1.23,3.55,2.36,2.36,0,0,0-1,3,4.22,4.22,0,0,0,2.68,2.19,11.18,11.18,0,0,0,6.83-.3,30.81,30.81,0,0,0,6.37-2.92,20.67,20.67,0,0,0,5.61-4.52,9.91,9.91,0,0,0,2.4-6.65l13.44,9.14C379.56,100.32,354.19,100.93,348.25,103.57Z" style="fill:#263238"></path><path d="M352.15,109.79c-3.48.23-5.61,1.21-6.78,3.48-1.32,2.58-1.4,6.85-.81,13.61-2.62,12.07,1,16.84,2.55,18.42,3.52,1.88,7.09,2.19,11.94.93,3.7-1,13.06-3.74,17-9.56,4.62-6.84,5.82-17.24.9-21.11C370,110.12,355.12,109.59,352.15,109.79Z" style="fill:#ffbda7"></path><path d="M347.11,145.3c-4.29-5.06-3.42-12.34-2.27-18.41-.25-4.5-1.14-9.3.53-13.62-2,4.07-1.34,9.5-1.08,13.55C343,132.91,342.36,140.52,347.11,145.3Z" style="fill:#fff"></path><path d="M347.11,145.3c.86.88,5.85,2.46,8.92,2.12l-.25-2.36A31.68,31.68,0,0,1,347.11,145.3Z" style="fill:#f0997a"></path><path d="M352.47,118.25c0,.33,0,.66.06,1a4,4,0,0,0,3.1,3.67,10.76,10.76,0,0,0-1.23,4.84,2.69,2.69,0,0,0,.33,1.53,1,1,0,0,0,1.82,0,12.77,12.77,0,0,1,1.52-2.53,4.84,4.84,0,0,1,3.06-1.64c4.5-.44,4.51,6.56,2.71,8.93-2.95,3.87-5.37,1.39-5.37,1.39s-1.52,6,2.81,8.57c0,0,7.05,2.42,11.81,0,2.18-4.49,5.07-7.81,7.41-12.59,4.1-8.37,2-15.4-.84-16.91-.22-4.92-2.56-7-7.61-9.34a25.34,25.34,0,0,0-14.47-1.54c-5.37,1.21-11,4.61-12.31,9.59a14.71,14.71,0,0,0,6.55,2.15.81.81,0,0,1,.63.47,1.14,1.14,0,0,1,.06.45C352.51,116.93,352.47,117.59,352.47,118.25Z" style="fill:#263238"></path><path d="M348.25,103.57c-4.33,1.74-8,6.39-4.72,10.76l.25.26-.34.14c-1.95,1.08-.9,3.73.91,4.44.2.09.14,0,.16.25l.17,5.19v.16c-1.89,1.74-2.82,4.33-3.58,6.75l-.1-.29,2.81,2.1.1.07v.13c-.18,4.09.33,8.61,3.2,11.77a12,12,0,0,1-3-5.49,22.65,22.65,0,0,1-.64-6.3l.09.19-2.84-2-.15-.1a21,21,0,0,1,2.37-5.58,7.29,7.29,0,0,1,1.29-1.56l-.11.25-.14-5.25.15.26c-1.49-.67-2.75-2.46-2-4.14a2.21,2.21,0,0,1,1.18-1.26l-.09.4a6.29,6.29,0,0,1-.44-6.86,10.73,10.73,0,0,1,5.53-4.24Z" style="fill:#fff"></path><path id="freepik--arm--inject-192" d="M322.92,205l4.28-22.71c1.79-9.48,2.84-21.69,16.44-24.3,2.46,3.75,4.06,9.5,3.23,16.67s-6.07,28.92-7.6,33.78c-1.85,5.39-3.57,7.24-7.59,12.15-3.58,4.37-10.39,11.76-13.95,16.12-1.65,2-3.07,4.05-4.59,6.2s-3.68,4-5.55,6a7.42,7.42,0,0,1-3.32,1.92c-.8.22-1.59-.08-2.35.13s-1.26.93-2.18,1-1.87-.68-2.8-.59a25.69,25.69,0,0,1-2.94.42,5,5,0,0,0-2.43.21c-.72.3-1.73,1.26-2.55.77s-.64-1.55-.31-2.38a8.11,8.11,0,0,1,3.56-3.63c1.59-.84,3-2,4.65-2.7a11.37,11.37,0,0,0,4-3.12c.77-.85,1.27-2.17-.29-2.19-1.84,0-4.11.68-5.79-.48-1.15-.8-.76-1.83.36-2.31a40.47,40.47,0,0,0,5.33-2.81c1.74-1.08,3.35-2.33,5.12-3.36a23.53,23.53,0,0,1,2.91-1.39c2.77-1.15,4-3.92,5.37-6.37C315.84,218.53,320.74,209.52,322.92,205Z" style="fill:#ffbda7"></path><path d="M344.25,157c-4.44,1.5-12.81,4-14.9,12.73-2,8.19-4.49,23-4.49,23s2,3.49,8.51,4.94,9.71-.37,9.71-.37,3.88-17,4.55-21.26S348.68,160.63,344.25,157Z" style="fill:#455a64"></path><path d="M328.86,171.07c-1.62,7.17-2.95,14.4-4.23,21.63l0,.1.05.06.24.35c0,.19-2.24,11.69-2.24,11.69-1.25,2.54-2.79,5.47-4.21,8.1s-2.89,5.4-4.37,8.07-2.67,5.66-5.5,6.94l-3.12,1.51A74.68,74.68,0,0,1,294.61,236a1.48,1.48,0,0,0-.69,1.07,1.42,1.42,0,0,0,.57,1.14c1.93,1.63,4.56.32,6.72.79.6.38-.07,1.34-.41,1.74-1.89,2.56-4.94,3.41-7.41,5.21-1.95,1.13-4.1,2.44-4.83,4.72a1.58,1.58,0,0,0,.46,2.05c-1.4-1-.08-3,.76-4a13.38,13.38,0,0,1,3.7-2.65,21,21,0,0,1,4-2.2,10.32,10.32,0,0,0,4.19-4c.61-1.74-1.66-1.4-2.67-1.31-1.48.14-3.12.25-4.27-.69-1.45-1.43,1.14-2,2.14-2.59a44,44,0,0,0,4-2.24,48.25,48.25,0,0,1,5.82-3.63l2.06-1c3-1.32,4.21-4.52,5.77-7.12,3-5.35,5.95-10.73,8.63-16.27l2.2-11.86,0-.1-.06-.09-.23-.32c1.23-7.21,2.5-14.41,4.08-21.55,1.16-7.9,8-12,15.06-14.16C337.06,159,330.07,163.08,328.86,171.07Z" style="fill:#fff"></path></g><path d="M396.57,372.6c-.68,1.72-2,4.68-1.58,7.84s.43,4.65-.37,6.12c-1.28,2.31-8.07,5.28-12.08,6.2a1.68,1.68,0,0,0-.24.07c-4.92,1.38-11.65-.89-13.35-3a4.35,4.35,0,0,1-.39-.72,37.27,37.27,0,0,0,5.75,1.46c5.26.51,10.27-3.38,12.19-8.3s1.17-10.55-.79-15.45-5.08-9.25-8-13.64A244.11,244.11,0,0,1,359,319.8a92.59,92.59,0,0,1-5.25-13.59,100.26,100.26,0,0,1-2.94-17.75c-1.43-14.75-4-36.24-5-51-1.21-18.62-2.07-25.92-3.79-39.43,0-.11,0-.23,0-.35,0,.17,0,.33,0,.49-1.13,4.63-2.15,8.52-2.7,10.25-1.57,4.57-3,6.6-5.9,10.1-.52.63-1.08,1.3-1.69,2.06-3.58,4.37-10.39,11.76-13.95,16.12-1.64,2-3.08,4.06-4.59,6.2s-3.68,4-5.55,6a7.29,7.29,0,0,1-3.32,1.93c-.8.23-1.59-.08-2.35.12s-1.25.95-2.19,1-1.86-.68-2.79-.6a22.16,22.16,0,0,1-2.94.43,5.26,5.26,0,0,0-2.43.21c-.72.31-1.72,1.24-2.54.77,1.08-3.13,4.33-5,7.48-6.13s6.79-1.85,9.41-4.09c2.43-2.06,3.73-5.11,5.23-7.93,4.1-7.72,10.21-14.24,14.45-21.89,4.91-8.88,7.15-19,8.46-29,.82-6.33,1.58-13.3,6.23-17.66a18.45,18.45,0,0,1,5.51-3.4c3.92-1.68,8.26-2.71,11.69-5.23,2.74-2,4.83-5.84,3.13-8.79-2-3.43-7.22-3-10.26-5.52-2.85-2.38-3-6.6-2.94-10.31l.27-15.45c.05-2.64.11-5.37,1.22-7.76,1.91-4.1,6.22-6.11,10.71-7.38,9.16.21,20,3.15,20,12.4,2.79,1.52,4.94,8.55.84,16.9-2.35,4.78-5.22,8.11-7.41,12.6h0l.31,5.39c1,0,1.64,0,1.64,0,7.48-.51,10.55,2,12.32,5.41,3.44,6.56,3,12.44,2,21.64-.92,8.49-1.92,18.79-1.92,24.26A111.9,111.9,0,0,0,389,220.56a3.1,3.1,0,0,1-.15.3c.82,5.47,1.49,13.87-.78,19.54a29.1,29.1,0,0,1-5.11,8.81L373.76,265c-1.43,18.43-3.28,40-3.28,40,4.94,5.1,6,8.81,8.87,17.95,1.75,5.54,7.25,22.67,9.09,28.33l-.26.05c.75,2.47,1.33,4.35,1.91,5.78a3.33,3.33,0,0,1,.72.85,17.15,17.15,0,0,0,3.07,2.63c1.11.79,2,1.17,2.34,2.57a2.51,2.51,0,0,1,1.45,1.14C398.82,365.47,398.12,368.71,396.57,372.6Z" style="opacity:0.30000000000000004"></path></g></g></g><g id="freepik--speech-bubble--inject-192"><g id="freepik--speech-bubble--inject-192"><g id="freepik--speech-bubble--inject-192"><g id="freepik--speech-bubble--inject-192"><path d="M215.19,39.61,131.6,88c-.63.36-1.14,1.23-1.14,2.93v56.75a2.45,2.45,0,0,0,1.14,2l4.51,2.56a2.52,2.52,0,0,0,2.27,0L222,103.8a2.5,2.5,0,0,0,1.14-2V44.11a2.46,2.46,0,0,0-1.14-2l-4.51-2.56A2.52,2.52,0,0,0,215.19,39.61Z" style="fill:#92E3A9"></path><path d="M215.19,39.61,131.6,88c-.63.36-1.14,1.23-1.14,2.93v56.75a2.45,2.45,0,0,0,1.14,2l4.51,2.56a2.52,2.52,0,0,0,2.27,0L222,103.8a2.5,2.5,0,0,0,1.14-2V44.11a2.46,2.46,0,0,0-1.14-2l-4.51-2.56A2.52,2.52,0,0,0,215.19,39.61Z" style="fill:#fff;opacity:0.45"></path><path d="M138.38,152.19a2.59,2.59,0,0,1-2.27,0l-4.51-2.56a2.43,2.43,0,0,1-1.14-2V90.93a4.31,4.31,0,0,1,.4-2.11l6.72,3.87a2.06,2.06,0,0,0-.33,1.11v57.74C137.25,152.21,137.71,152.58,138.38,152.19Z" style="fill:#92E3A9"></path><path d="M138.38,152.19a2.59,2.59,0,0,1-2.27,0l-4.51-2.56a2.43,2.43,0,0,1-1.14-2V90.93a4.31,4.31,0,0,1,.4-2.11l6.72,3.87a2.06,2.06,0,0,0-.33,1.11v57.74C137.25,152.21,137.71,152.58,138.38,152.19Z" style="opacity:0.25"></path><path d="M127.36,129.25c-.71-.42-6.13-3.48-6.31-3.58a1.06,1.06,0,0,1-.22-1.62l9.63-11,6.79,3.89-10.08,10.76A1.08,1.08,0,0,0,127.36,129.25Z" style="fill:#92E3A9"></path><path d="M127.36,129.25c-.71-.42-6.13-3.48-6.31-3.58a1.06,1.06,0,0,1-.22-1.62l9.63-11,6.79,3.89-10.08,10.76A1.08,1.08,0,0,0,127.36,129.25Z" style="fill:#fff;opacity:0.45"></path><path d="M222,43.45,138.38,91.84a2.49,2.49,0,0,0-1.13,2v23.1l-10.08,10.76a1,1,0,0,0,.64,1.74l9.44-.69h0v22.83c0,.72.5,1,1.13.65L222,103.8a2.5,2.5,0,0,0,1.14-2V44.11C223.11,43.39,222.6,43.09,222,43.45Z" style="fill:#92E3A9"></path><path d="M222,43.45,138.38,91.84a2.49,2.49,0,0,0-1.13,2v23.1l-10.08,10.76a1,1,0,0,0,.64,1.74l9.44-.69h0v22.83c0,.72.5,1,1.13.65L222,103.8a2.5,2.5,0,0,0,1.14-2V44.11C223.11,43.39,222.6,43.09,222,43.45Z" style="fill:#263238"></path><path d="M221.13,46.23V101.8a.72.72,0,0,1-.15.29l-81.76,47.33V126.58l-2.12.16-6.83.49,8.42-9,.53-.57V93.84a1,1,0,0,1,.15-.29l81.76-47.32m1.35-2.93a1.12,1.12,0,0,0-.51.15L138.38,91.84a2.49,2.49,0,0,0-1.13,2v23.1l-10.08,10.76a1,1,0,0,0,.64,1.74l9.44-.69h0v22.83c0,.51.25.8.62.8a1.06,1.06,0,0,0,.51-.15L222,103.8a2.5,2.5,0,0,0,1.14-2V44.11c0-.51-.26-.81-.63-.81Z" style="fill:#92E3A9"></path></g></g><path d="M214.21,86.33a2.45,2.45,0,0,0-1.21.33l-.1.07a2.67,2.67,0,0,0-1.23,1.48,2.25,2.25,0,0,0-.58-.08,2.36,2.36,0,0,0-1.21.34l-.2.11a2.81,2.81,0,0,0-1.05,1.09h-.16a2.52,2.52,0,0,0-1.26.35l-2,1.15a3.17,3.17,0,0,0-1,.92,2.28,2.28,0,0,0-1.17.33l-1.56.9a3.15,3.15,0,0,0-.41.31,2.25,2.25,0,0,0-.51.22l-3.24,1.87a2.77,2.77,0,0,0-1.06,1.09h-.15a2.35,2.35,0,0,0-1.19.33l-1.29.75a2.76,2.76,0,0,0-1.23,1.47,2.11,2.11,0,0,0-.56-.09,2.35,2.35,0,0,0-1.2.34l-.17.1a3,3,0,0,0-1.41,2.06l-.11.53a2.23,2.23,0,0,0-1.43-.53,2.3,2.3,0,0,0-1.2.34l-.15.08a2.83,2.83,0,0,0-1,1h-.08a2.45,2.45,0,0,0-1.27.36l-2.6,1.5a2.72,2.72,0,0,0-1,1.06l-.16,0a2.56,2.56,0,0,0-1.27.35l-2,1.15a3.18,3.18,0,0,0-1.09,1.07h-.08a2.3,2.3,0,0,0-1.2.34l-3.23,1.86a2.81,2.81,0,0,0-.91.87,2.2,2.2,0,0,0-1.56.32l-2,1.16a3.31,3.31,0,0,0-1.22,1.29h0a2.41,2.41,0,0,0-1.2.33l-.11.07a2.75,2.75,0,0,0-1.23,1.48,2.25,2.25,0,0,0-.58-.08,2.46,2.46,0,0,0-1.21.34l-.2.12a2.67,2.67,0,0,0-1.22,1.52,2.57,2.57,0,0,0-.61-.09,2.34,2.34,0,0,0-1.18.33l-1.29.75a2.86,2.86,0,0,0-1.33,1.87,2.41,2.41,0,0,0-.92-.2,2.47,2.47,0,0,0-1.27.36l-2.6,1.5a2.74,2.74,0,0,0-.54.41,2.61,2.61,0,0,0-.68.27L146,125.34a2.81,2.81,0,0,0-1.4,2.51V128a2.25,2.25,0,0,0,1.57,2.26v5.4a2.56,2.56,0,0,0,.26,1.2,2.15,2.15,0,0,0,1.92,1.17,2.41,2.41,0,0,0,1.19-.33l.11-.07a2.71,2.71,0,0,0,1.15-1.33,2.22,2.22,0,0,0,.45.06,2.41,2.41,0,0,0,1.19-.33l.12-.07a2.71,2.71,0,0,0,1.13-1.26,1.87,1.87,0,0,0,.34,0,2.5,2.5,0,0,0,1.27-.36l.37-.21a2.85,2.85,0,0,0,.7-.59,2.39,2.39,0,0,0,.8-.28l.13-.07a3,3,0,0,0,1.41-2.18V131a2.23,2.23,0,0,0,1.22.37,2.41,2.41,0,0,0,1.19-.33l.11-.07a2.5,2.5,0,0,0,.73-.64,2.33,2.33,0,0,0,.89-.29L163,130a2.78,2.78,0,0,0,1.26-1.56,1.89,1.89,0,0,0,.63.1,2.42,2.42,0,0,0,1.21-.33l.12-.07a2.81,2.81,0,0,0,1-1.09h.15a2.6,2.6,0,0,0,1.28-.35l2-1.14a3.3,3.3,0,0,0,1.12-1.11h.16a2.33,2.33,0,0,0,1.2-.34l.11-.06a2.79,2.79,0,0,0,1.4-2.49V119.3l.2-.11a2.51,2.51,0,0,0,.87,1.29l.34.25a2.33,2.33,0,0,0,1.41.48,2.45,2.45,0,0,0,1.27-.36l2-1.15a3.22,3.22,0,0,0,1.09-1.11,1,1,0,0,0,.17,0,2.33,2.33,0,0,0,1.2-.34l.12-.06a2.75,2.75,0,0,0,1.13-1.26,1.84,1.84,0,0,0,.33,0,2.51,2.51,0,0,0,1.28-.36l.37-.21a2.76,2.76,0,0,0,.78-.7,2.56,2.56,0,0,0,1-.31l.09-.06a2.71,2.71,0,0,0,1.31-1.72,2.3,2.3,0,0,0,.68-.27s.42-.24.42-.25a2.19,2.19,0,0,0,.67.11,2.33,2.33,0,0,0,1.2-.34l.1,0a2.83,2.83,0,0,0,.73-.64,2.6,2.6,0,0,0,.88-.29l.12-.07a2.93,2.93,0,0,0,1.41-2.18v-.07A2.23,2.23,0,0,0,197,110a2.33,2.33,0,0,0,1.2-.34l.11-.06a2.64,2.64,0,0,0,1.08-1.19,1.45,1.45,0,0,0,.29,0,2.35,2.35,0,0,0,1.19-.33L201,108a2.76,2.76,0,0,0,1.06-1.11l.22,0a2.35,2.35,0,0,0,1.2-.34l1.55-.9a2.71,2.71,0,0,0,.94-.9,2.59,2.59,0,0,0,1.24-.35l2-1.14a3.21,3.21,0,0,0,1.12-1.11l.16,0a2.39,2.39,0,0,0,1.19-.34l.12-.07a2.71,2.71,0,0,0,1.25-1.55,2,2,0,0,0,.64.1,2.47,2.47,0,0,0,1.22-.34l.1-.06a2.8,2.8,0,0,0,1.41-2.5V88.7A2.23,2.23,0,0,0,214.21,86.33Z" style="fill:#92E3A9;opacity:0.30000000000000004"></path><path d="M214.21,87.32a1.37,1.37,0,0,0-.71.2l-.11.06a1.84,1.84,0,0,0-.9,1.66v1.29l-.23-.56a1.26,1.26,0,0,0-1.17-.85,1.51,1.51,0,0,0-.72.2l-.2.12a1.77,1.77,0,0,0-.88,1.49,1.35,1.35,0,0,0-.82-.28,1.48,1.48,0,0,0-.77.22l-2,1.15a2.29,2.29,0,0,0-.88,1l-.1.19a1.16,1.16,0,0,0-.48-.11,1.43,1.43,0,0,0-.7.2l-1.56.9a1.91,1.91,0,0,0-.43.36,1.39,1.39,0,0,0-.49.18l-3.24,1.87a1.77,1.77,0,0,0-.89,1.56,1.19,1.19,0,0,0-.81-.35,1.41,1.41,0,0,0-.7.2l-1.29.74a1.92,1.92,0,0,0-.92,1.47l-.18,1.28a1.21,1.21,0,0,0-1.18-1.23,1.43,1.43,0,0,0-.7.2l-.18.11a2,2,0,0,0-.93,1.39l-.75,3.82-.56-2a1.24,1.24,0,0,0-1.2-1,1.5,1.5,0,0,0-.71.2l-.15.09a1.75,1.75,0,0,0-.87,1.38,1.37,1.37,0,0,0-.73-.23,1.65,1.65,0,0,0-.78.22l-2.59,1.5a1.78,1.78,0,0,0-.89,1.47,1.26,1.26,0,0,0-.81-.29,1.48,1.48,0,0,0-.77.22l-2,1.15a2.31,2.31,0,0,0-.89,1l-.2.39a1.1,1.1,0,0,0-.57-.16,1.47,1.47,0,0,0-.71.2l-3.23,1.87a1.75,1.75,0,0,0-.86,1.27,1.35,1.35,0,0,0-.84-.3,1.58,1.58,0,0,0-.77.22l-2,1.15a2.35,2.35,0,0,0-.88,1l-.32.62a1.15,1.15,0,0,0-.56-.15,1.41,1.41,0,0,0-.7.2l-.12.07a1.81,1.81,0,0,0-.9,1.65v1.3l-.22-.56a1.28,1.28,0,0,0-1.18-.86,1.44,1.44,0,0,0-.71.2l-.21.12a1.84,1.84,0,0,0-.9,1.66v2.24l-.2-1.21a1.24,1.24,0,0,0-1.22-1.12,1.4,1.4,0,0,0-.69.2l-1.29.74a2,2,0,0,0-.93,1.47l-.2,1.49a1.48,1.48,0,0,0-.46-.62l-.33-.25a1.35,1.35,0,0,0-.82-.28,1.56,1.56,0,0,0-.78.23L151,123.64a1.85,1.85,0,0,0-.52.48h0a1.35,1.35,0,0,0-.7.21l-3.24,1.87a1.81,1.81,0,0,0-.9,1.65V128a1.2,1.2,0,0,0,1.56,1.3v6.36a1.7,1.7,0,0,0,.16.75,1.15,1.15,0,0,0,1,.64,1.38,1.38,0,0,0,.7-.21l.11-.06a1.84,1.84,0,0,0,.9-1.66v-1a1.53,1.53,0,0,0,.15.66,1.14,1.14,0,0,0,1,.63,1.46,1.46,0,0,0,.7-.2l.11-.07a1.81,1.81,0,0,0,.91-1.65v-.17l.25.19a1.36,1.36,0,0,0,.81.27,1.65,1.65,0,0,0,.78-.22l.37-.22a1.73,1.73,0,0,0,.67-.67H156a1.43,1.43,0,0,0,.68-.19l.13-.08a1.92,1.92,0,0,0,.92-1.46l.26-1.78a.56.56,0,0,1,0-.07l.63-.36.09.55a1.25,1.25,0,0,0,1.22,1.11,1.3,1.3,0,0,0,.69-.2l.12-.06a1.77,1.77,0,0,0,.69-.75l.22,0a1.43,1.43,0,0,0,.7-.2l.11-.07a1.81,1.81,0,0,0,.91-1.64v-1.56l.32.78a1.25,1.25,0,0,0,1.16.83,1.51,1.51,0,0,0,.72-.2l.11-.07a1.77,1.77,0,0,0,.89-1.48,1.34,1.34,0,0,0,.81.27,1.49,1.49,0,0,0,.78-.22l2-1.14a2.37,2.37,0,0,0,.89-1l.24-.46a1.15,1.15,0,0,0,.64.2,1.41,1.41,0,0,0,.71-.21l.1-.06a1.81,1.81,0,0,0,.91-1.64v-2.8l2.06-1.19v.81a1.6,1.6,0,0,0,.6,1.34l.34.25a1.3,1.3,0,0,0,.81.28,1.65,1.65,0,0,0,.78-.22l2-1.15a2.29,2.29,0,0,0,.88-1l.24-.46a1.13,1.13,0,0,0,.64.2,1.41,1.41,0,0,0,.7-.2l.12-.07a1.82,1.82,0,0,0,.9-1.65v-.17l.25.18a1.35,1.35,0,0,0,.81.28,1.65,1.65,0,0,0,.79-.22l.36-.22a1.72,1.72,0,0,0,.74-.84,1.55,1.55,0,0,0,.31,0,1.46,1.46,0,0,0,.7-.2l.1-.06a1.85,1.85,0,0,0,.91-1.66v-.19a1.29,1.29,0,0,0,.37.06,1.42,1.42,0,0,0,.72-.21l.4-.23a1.65,1.65,0,0,0,.41-.33,1.13,1.13,0,0,0,.77.29,1.41,1.41,0,0,0,.7-.2l.11-.06a1.79,1.79,0,0,0,.69-.73h.23a1.34,1.34,0,0,0,.68-.2l.13-.07a1.9,1.9,0,0,0,.92-1.46l.26-1.78a.56.56,0,0,1,0-.07l.63-.36.1.55A1.23,1.23,0,0,0,197,109a1.36,1.36,0,0,0,.7-.2l.11-.07a1.7,1.7,0,0,0,.88-1.51,2.1,2.1,0,0,0,0-.32l0-.06a1.17,1.17,0,0,0,1,.62,1.35,1.35,0,0,0,.7-.21l.11-.06a1.82,1.82,0,0,0,.9-1.64,1.18,1.18,0,0,0,.88.41,1.43,1.43,0,0,0,.7-.2l1.56-.9a1.75,1.75,0,0,0,.85-1.17,1.26,1.26,0,0,0,.54.13,1.51,1.51,0,0,0,.78-.22l2-1.14a2.37,2.37,0,0,0,.89-1l.23-.46a1.21,1.21,0,0,0,.65.2,1.43,1.43,0,0,0,.7-.2l.11-.07a1.81,1.81,0,0,0,.91-1.64V97.72l.32.79a1.24,1.24,0,0,0,1.16.83,1.39,1.39,0,0,0,.72-.21l.11-.06a1.81,1.81,0,0,0,.91-1.64V88.7A1.23,1.23,0,0,0,214.21,87.32Zm-61,40-.2.12V126l.2-.12Zm15.6-5.41-.23.13a1.39,1.39,0,0,0-.22-.65l.45-.26Zm-.21-4.17v-1l.21-.13a1.51,1.51,0,0,0,.27.83Zm7-3.46a1.47,1.47,0,0,0-.71.2l-1.22.71v-1.14l2.06-1.19v1.43Zm3.25,1.82-.21.13v-5.07l.22-.13Zm5.08-6.52-.21.12v-1.45l.2-.12Zm13.52-10.09a1.19,1.19,0,0,0,.67.22,1.21,1.21,0,0,0,.38-.06v6.11Zm4,3.8V98l.4-.23v5.08A1.5,1.5,0,0,0,201.41,103.31Zm5.9-3.62-.21.12V94.74l.21-.12Z" style="fill:#92E3A9;opacity:0.30000000000000004"></path><path d="M214.47,77.29a3,3,0,0,0-1.49.43l-3.39,2V64.23c0-2.29-1.54-2.9-2.45-2.9a2.92,2.92,0,0,0-1.48.43l-.26.15a3.94,3.94,0,0,0-2,3.58v9.4L202.29,68a2.58,2.58,0,0,0-2.51-2.33,2.88,2.88,0,0,0-1.46.42l-3,1.75a4.2,4.2,0,0,0-2,3.2l-.09.64a2.39,2.39,0,0,0-2-1.12,2.89,2.89,0,0,0-1.48.43l-7.61,4.39a4.14,4.14,0,0,0-1,.87,3.07,3.07,0,0,0-1.14.38l-3.66,2.12a3.84,3.84,0,0,0-1.91,3,2.78,2.78,0,0,0-1.53-.46,3.26,3.26,0,0,0-1.64.46l-4.64,2.69a5.1,5.1,0,0,0-1.95,2.12l-.38.73a2.53,2.53,0,0,0-1.3-.4,2.89,2.89,0,0,0-1.48.43l-3.66,2.11a3.86,3.86,0,0,0-1.92,3,2.75,2.75,0,0,0-1.52-.47,3.28,3.28,0,0,0-1.64.47l-6.14,3.55a3.89,3.89,0,0,0-1.95,3.55V120c0,2.27,1.54,2.88,2.44,2.88a3,3,0,0,0,1.49-.43l6.14-3.55a5.08,5.08,0,0,0,1.94-2.12L157,116a2.53,2.53,0,0,0,1.26.37,3,3,0,0,0,1.49-.43l3.66-2.12a3.79,3.79,0,0,0,1.9-2.91,2.81,2.81,0,0,0,1.51.45,3.4,3.4,0,0,0,1.69-.48l4.65-2.69a5.08,5.08,0,0,0,1.94-2.12l.4-.75a2.41,2.41,0,0,0,1.26.37,2.92,2.92,0,0,0,1.48-.43l3.66-2.11a3.92,3.92,0,0,0,2-3.56v-.35a3,3,0,0,0-.8-2.23,2.37,2.37,0,0,0-.91-.55V83a1.12,1.12,0,0,1,0-.2,3.31,3.31,0,0,0,.8-.7,3.14,3.14,0,0,0,.86-.26V97.3a3.34,3.34,0,0,0,.34,1.59,2.39,2.39,0,0,0,2.12,1.31,2.88,2.88,0,0,0,1.47-.43l.27-.16A3.92,3.92,0,0,0,190,96V78.47a1,1,0,0,0,0-.18l1.71-1a4.44,4.44,0,0,0,.8-.61l-2.27,16.49a4.53,4.53,0,0,0,0,.71,2.62,2.62,0,0,0,1.08,2.26,2.32,2.32,0,0,0,1.33.41,2.84,2.84,0,0,0,1.44-.42l.29-.16a4.23,4.23,0,0,0,2-3.19l.59-4.18a1.81,1.81,0,0,1,.09-.35l2-1.18.31,1.8a2.58,2.58,0,0,0,2.51,2.33,2.87,2.87,0,0,0,1.45-.42l.3-.17a3.66,3.66,0,0,0,1.87-3.17,2.75,2.75,0,0,0,1.73.61,3.22,3.22,0,0,0,1.64-.47L215,84.07a3.91,3.91,0,0,0,1.95-3.55v-.36C216.91,77.9,215.37,77.29,214.47,77.29ZM152,112.81V113l-1.2.69v-12.5c0-.08,0-.13,0-.15l1.19-.69Zm18.52-10.69c0,.08,0,.13,0,.15l-1.21.7v-2.81a2.31,2.31,0,0,0,1.16.31h.06Zm-.55-8.43a3.68,3.68,0,0,0-.67.48V90.33l1.22-.71v1a2.9,2.9,0,0,0,.85,2.25Zm5.67-1.53a3.28,3.28,0,0,0,.42-.56v1A2.78,2.78,0,0,0,175.6,92.16Z" style="fill:#92E3A9;opacity:0.30000000000000004"></path><path d="M192.66,73.79v-.36c0-1.82-1.22-1.91-1.46-1.91a1.9,1.9,0,0,0-1,.29l-7.61,4.4a2.79,2.79,0,0,0-1,1l-.18,0a2,2,0,0,0-1,.3l-3.66,2.11a2.94,2.94,0,0,0-1.46,2.73v.35a2,2,0,0,0,.55,1.55,1.3,1.3,0,0,0,.89.34l.25,0v14.4a1.62,1.62,0,0,1-.13.66.54.54,0,0,1-.22.26,2.49,2.49,0,0,0-1,1.14s0,0,0,0V94.55c0-1.8-1.21-1.89-1.46-1.89a2,2,0,0,0-1,.3l-2.75,1.59A2.91,2.91,0,0,0,169,97.24v.36a2.49,2.49,0,0,0,.23,1.13,1.38,1.38,0,0,0,1.23.75,2,2,0,0,0,1-.3l.06,0v3a1,1,0,0,1-.47,1l-2.73,1.57V90.47c0-.63.23-.85.47-1l2.73-1.58v2.72c0,1.79,1.21,1.88,1.45,1.88a2,2,0,0,0,1-.3l.24-.14a2.89,2.89,0,0,0,1.46-2.69V85.3a2.47,2.47,0,0,0-.87-2.09l-.74-.55a1.8,1.8,0,0,0-1.16-.42,2.29,2.29,0,0,0-1.14.33l-4.65,2.68A4.2,4.2,0,0,0,165.49,87l-.8,1.51a5.8,5.8,0,0,0-.34.83c-.18-1.39-1.2-1.48-1.42-1.48a2,2,0,0,0-1,.3l-3.66,2.11A2.94,2.94,0,0,0,156.83,93v.35a2,2,0,0,0,.54,1.55,1.34,1.34,0,0,0,.9.34,1,1,0,0,0,.24,0V109.6a1.62,1.62,0,0,1-.12.66.68.68,0,0,1-.22.26,2.46,2.46,0,0,0-1,1.13s0,0,0,.06V96a2.44,2.44,0,0,0-.88-2.09l-.73-.56a1.86,1.86,0,0,0-1.16-.42,2.34,2.34,0,0,0-1.15.34l-6.14,3.54a2.93,2.93,0,0,0-1.45,2.7V120c0,1.8,1.21,1.89,1.45,1.89a2,2,0,0,0,1-.3l6.14-3.55a4,4,0,0,0,1.56-1.72l.78-1.48a5.91,5.91,0,0,0,.34-.84,1.45,1.45,0,0,0,1.41,1.41,2,2,0,0,0,1-.3l3.66-2.11a2.92,2.92,0,0,0,1.46-2.7v-.35a2.06,2.06,0,0,0-.51-1.53,1.32,1.32,0,0,0-.94-.38l-.26,0V93.66a1.54,1.54,0,0,1,.14-.67.57.57,0,0,1,.24-.29,2.58,2.58,0,0,0,1-1.15v15.79a2.44,2.44,0,0,0,.87,2.08l.77.58a1.77,1.77,0,0,0,1.1.38A2.37,2.37,0,0,0,168,110l4.65-2.68a4.24,4.24,0,0,0,1.56-1.72l.77-1.49a4.93,4.93,0,0,0,.34-.84,1.45,1.45,0,0,0,1.42,1.41,1.91,1.91,0,0,0,1-.3l3.66-2.11a2.91,2.91,0,0,0,1.45-2.7v-.35a2,2,0,0,0-.51-1.53,1.35,1.35,0,0,0-.94-.38l-.26,0V83a1.55,1.55,0,0,1,.14-.68.68.68,0,0,1,.24-.29,2.43,2.43,0,0,0,.91-.88h.14a1.93,1.93,0,0,0,1-.31l1.24-.74V97.3a2.51,2.51,0,0,0,.23,1.14,1.38,1.38,0,0,0,1.24.77,2,2,0,0,0,1-.3l.26-.15A2.93,2.93,0,0,0,189,96V78.47c0-.66.24-.88.47-1l1.73-1A2.87,2.87,0,0,0,192.66,73.79Zm-39.71,39a1,1,0,0,1-.47,1l-2.71,1.56V101.15a1,1,0,0,1,.47-1L153,98.6Zm48.36-44.66c-.26-1.41-1.24-1.52-1.53-1.52a2,2,0,0,0-1,.29l-3,1.75a3.19,3.19,0,0,0-1.52,2.47L191.2,93.36a3.74,3.74,0,0,0,0,.54,1.65,1.65,0,0,0,.66,1.45,1.37,1.37,0,0,0,.77.23,1.88,1.88,0,0,0,.95-.28l.29-.17a3.24,3.24,0,0,0,1.52-2.47l.6-4.19c.12-.8.44-1,.55-1l3.26-1.91.55,3.2c.26,1.41,1.24,1.52,1.54,1.52a1.83,1.83,0,0,0,1-.29l.29-.16a2.68,2.68,0,0,0,1.38-2.4,3.39,3.39,0,0,0,0-.54Zm-2.84,13-1.64.94,1-7.57,1,5.75a1,1,0,0,1,0,.19A.69.69,0,0,1,198.47,81.11Zm16-2.83a2,2,0,0,0-1,.3L208.6,81.4V64.23c0-1.82-1.22-1.92-1.46-1.92a1.92,1.92,0,0,0-1,.3l-.27.15a3,3,0,0,0-1.46,2.73V84a2.43,2.43,0,0,0,.88,2.08l.74.56a1.76,1.76,0,0,0,1.15.42,2.32,2.32,0,0,0,1.15-.33l6.12-3.54a2.9,2.9,0,0,0,1.45-2.69v-.36C215.92,78.37,214.71,78.28,214.47,78.28Z" style="fill:#92E3A9;opacity:0.30000000000000004"></path><path d="M154.88,94.1a1,1,0,0,0-1.18,0l-6.14,3.55a1.94,1.94,0,0,0-1,1.84V120c0,.86.32,1.1,1,.73l6.14-3.54a3.17,3.17,0,0,0,1.18-1.33l.77-1.47a4.13,4.13,0,0,0,.48-1.88V96a1.53,1.53,0,0,0-.48-1.3Zm-.94,18.71a2,2,0,0,1-1,1.84l-3.23,1.87c-.64.37-1,.13-1-.73V101.15a2,2,0,0,1,1-1.84L153,97.44c.64-.37,1-.12,1,.73ZM162.44,89l-3.66,2.12a2,2,0,0,0-1,1.87v.35a1.13,1.13,0,0,0,.21.81c.15.13.36.12.63,0s.48-.16.62,0a1.19,1.19,0,0,1,.22.84V109.6a2.38,2.38,0,0,1-.22,1.07,1.47,1.47,0,0,1-.62.7,1.59,1.59,0,0,0-.63.7,2.59,2.59,0,0,0-.21,1.07v.36c0,.85.32,1.1,1,.72l3.66-2.11a2,2,0,0,0,1-1.84v-.35a1.17,1.17,0,0,0-.21-.82c-.15-.15-.36-.14-.63,0s-.49.17-.64,0a1.09,1.09,0,0,1-.23-.81V93.66a2.56,2.56,0,0,1,.23-1.09,1.51,1.51,0,0,1,.64-.72,1.85,1.85,0,0,0,.84-1.74v-.36C163.4,88.88,163.08,88.62,162.44,89Zm10.93-5.57a1,1,0,0,0-1.18,0l-4.65,2.68a3.28,3.28,0,0,0-1.18,1.32L165.57,89a4,4,0,0,0-.48,1.85v16.54a1.52,1.52,0,0,0,.48,1.29l.77.59a1,1,0,0,0,1.2-.06l4.65-2.68a3.14,3.14,0,0,0,1.18-1.32l.77-1.48a4.13,4.13,0,0,0,.48-1.88V94.55c0-.86-.32-1.1-1-.73l-2.75,1.58a2,2,0,0,0-1,1.84v.36q0,1.28,1,.72l.58-.33c.65-.37,1-.13,1,.73v3.4a1.94,1.94,0,0,1-1,1.84l-3.25,1.88c-.64.37-1,.13-1-.73V90.47a2,2,0,0,1,1-1.84l3.25-1.88c.65-.37,1-.13,1,.73v3.15c0,.85.32,1.1,1,.72l.24-.13a2,2,0,0,0,1-1.84V85.3a1.55,1.55,0,0,0-.48-1.3Zm7.56-5.1-3.66,2.11a2,2,0,0,0-1,1.87v.35a1.08,1.08,0,0,0,.22.81c.14.13.35.12.62,0s.48-.16.63,0a1.27,1.27,0,0,1,.21.84V98.92a2.6,2.6,0,0,1-.21,1.08,1.65,1.65,0,0,1-.63.7,1.49,1.49,0,0,0-.62.69,2.45,2.45,0,0,0-.22,1.08v.35c0,.86.32,1.1,1,.73l3.66-2.12a2,2,0,0,0,1-1.84v-.35a1.17,1.17,0,0,0-.22-.82c-.15-.14-.35-.13-.63,0s-.48.17-.64,0a1.12,1.12,0,0,1-.22-.82V83a2.57,2.57,0,0,1,.22-1.1,1.67,1.67,0,0,1,.64-.72,1.86,1.86,0,0,0,.85-1.74v-.35C181.9,78.2,181.57,78,180.93,78.32Zm9.78-5.65-7.61,4.39a2,2,0,0,0-1,1.88v.35c0,.84.32,1.07,1,.7l1.76-1c.64-.37,1-.12,1,.76V97.3c0,.87.32,1.13,1,.76l.27-.16A2,2,0,0,0,188,96V78.47a2,2,0,0,1,1-1.88l1.73-1a1.93,1.93,0,0,0,1-1.81v-.35C191.67,72.55,191.35,72.3,190.71,72.67Zm9.63-4.34c-.13-.7-.47-.88-1-.56l-3,1.75a2.26,2.26,0,0,0-1,1.76l-3.06,22.25a1.83,1.83,0,0,0,0,.37.72.72,0,0,0,.23.63c.15.11.38.08.66-.09l.29-.17a2.24,2.24,0,0,0,1-1.75l.6-4.2a2.25,2.25,0,0,1,1-1.75l3.63-2.1c.56-.33.91-.14,1,.56l.6,3.5c.13.7.47.88,1,.56l.28-.17a1.66,1.66,0,0,0,.9-1.54,1.58,1.58,0,0,0,0-.37ZM199,82l-2.31,1.33c-.29.17-.51.2-.67.09s-.22-.31-.22-.63a2,2,0,0,1,0-.37l1.28-9.25c.12-.84.37-1.37.72-1.57s.59,0,.72.74l1.33,7.74a3,3,0,0,1,0,.37A1.69,1.69,0,0,1,199,82Zm15-2.53-5.39,3.11c-.65.37-1,.13-1-.73V64.23c0-.88-.32-1.13-1-.76l-.26.15a2,2,0,0,0-1,1.87V84a1.52,1.52,0,0,0,.48,1.29l.78.59a1,1,0,0,0,1.17,0L214,82.36a2,2,0,0,0,1-1.84v-.36Q214.93,78.89,214,79.44Z" style="fill:#92E3A9"></path><path d="M150.24,125.18,147,127.05a.85.85,0,0,0-.42.8V128q0,.52.42.3l.74-.44c.28-.15.41,0,.41.33v7.47c0,.38.14.48.41.33l.12-.07a.85.85,0,0,0,.41-.8v-7.47a.83.83,0,0,1,.41-.8l.73-.42a.82.82,0,0,0,.41-.77v-.15C150.65,125.13,150.52,125,150.24,125.18Zm4.33-2.19a.42.42,0,0,0-.5,0l-2.6,1.5a.84.84,0,0,0-.41.78V134c0,.37.14.48.41.32l.12-.06a.86.86,0,0,0,.41-.8V131a.83.83,0,0,1,.41-.79l.47-.27c.27-.16.41,0,.41.31v1.67a.67.67,0,0,0,.2.55l.34.26a.42.42,0,0,0,.5,0l.37-.21a.83.83,0,0,0,.41-.79v-.15c0-.36-.13-.46-.41-.31l-.07,0c-.27.16-.41.06-.41-.3v-1.28c0-.36,0-.56.07-.58a1.69,1.69,0,0,0,.28-.44l.33-.62a2.15,2.15,0,0,0,.16-.41,1.23,1.23,0,0,0,.05-.39v-3.43a.67.67,0,0,0-.2-.55Zm-.39,4.37a.85.85,0,0,1-.41.79l-1.36.78c-.28.16-.41.06-.41-.31V126a.83.83,0,0,1,.41-.79l1.36-.78c.27-.16.41-.06.41.31Zm5.13-6.9c-.05-.29-.2-.37-.44-.23l-1.29.74a1,1,0,0,0-.44.75l-1.3,9.47a.71.71,0,0,0,0,.16.31.31,0,0,0,.1.27c.06,0,.16,0,.28,0l.12-.07a1,1,0,0,0,.44-.75L157,129a.93.93,0,0,1,.44-.74l1.55-.9c.24-.14.38-.06.44.24l.25,1.49q.09.45.45.24l.12-.07a.73.73,0,0,0,.38-.66c0-.07,0-.12,0-.16Zm-.58,5.81-1,.57c-.13.07-.22.08-.29,0a.35.35,0,0,1-.09-.28.66.66,0,0,1,0-.15l.54-3.94c.06-.36.16-.58.31-.67s.25,0,.31.32l.56,3.29a.71.71,0,0,1,0,.16A.73.73,0,0,1,158.73,126.27Zm6.49-9.73-.11.06a.83.83,0,0,0-.41.8v4.81a.93.93,0,0,1-.06.36.36.36,0,0,1-.15.2.14.14,0,0,1-.15,0,.36.36,0,0,1-.13-.16l-1.65-4.12c-.08-.23-.24-.28-.47-.15l-.2.12a.83.83,0,0,0-.41.8V128c0,.36.13.47.41.31l.11-.07a.82.82,0,0,0,.41-.78v-5a1,1,0,0,1,.06-.38.39.39,0,0,1,.16-.22c.1-.06.19,0,.26.18l1.74,4.31c.09.22.25.27.48.14l.11-.06a.85.85,0,0,0,.41-.79v-8.73C165.63,116.49,165.49,116.38,165.22,116.54Zm5-2.79a.4.4,0,0,0-.5,0l-2,1.15a1.26,1.26,0,0,0-.5.56l-.33.62a1.75,1.75,0,0,0-.21.81v3a.63.63,0,0,0,.21.55l.33.25c.13.11.3.1.51,0l1.67-1c.27-.15.41,0,.41.31v2a.85.85,0,0,1-.41.79l-1.37.79c-.28.16-.41,0-.41-.31v-.94c0-.37-.14-.47-.41-.31l-.12.06a.84.84,0,0,0-.41.78v1.34a.66.66,0,0,0,.21.56l.34.25a.42.42,0,0,0,.5,0l2-1.14a1.32,1.32,0,0,0,.5-.56l.33-.63a1.85,1.85,0,0,0,.2-.8v-2.76a.67.67,0,0,0-.2-.55l-.33-.25a.42.42,0,0,0-.5,0l-1.68,1c-.28.16-.41.05-.41-.31v-2.18A.82.82,0,0,1,168,116l1.37-.79c.27-.16.41-.06.41.31v1.08c0,.36.14.46.41.31l.11-.07a.82.82,0,0,0,.41-.78v-1.48a.68.68,0,0,0-.2-.55Zm5.2-3-3.23,1.86a.83.83,0,0,0-.41.79v8.72c0,.36.13.46.41.31l.11-.07a.84.84,0,0,0,.41-.78v-2.82a.84.84,0,0,1,.41-.78l2.3-1.33a.83.83,0,0,0,.41-.78v-.15c0-.37-.14-.47-.41-.31l-2.3,1.32c-.27.16-.41.06-.41-.31v-2.32a.84.84,0,0,1,.41-.78l2.3-1.33a.84.84,0,0,0,.41-.78V111C175.79,110.64,175.65,110.54,175.38,110.7Zm4.86-2.55a.42.42,0,0,0-.51,0l-2,1.14a1.49,1.49,0,0,0-.5.57l-.33.62a1.86,1.86,0,0,0-.2.81v7a.67.67,0,0,0,.2.55l.34.26a.44.44,0,0,0,.5,0l2-1.14a1.43,1.43,0,0,0,.51-.57l.32-.62a1.75,1.75,0,0,0,.21-.81v-7a.64.64,0,0,0-.21-.55Zm-.4,8a.84.84,0,0,1-.41.78l-1.38.79c-.27.16-.41.06-.41-.31v-6.26a.84.84,0,0,1,.41-.78l1.38-.79c.27-.16.41-.06.41.31Zm5.46-10.91a.44.44,0,0,0-.5,0l-2.6,1.5a.84.84,0,0,0-.41.78v8.71c0,.37.14.48.41.32l.11-.06a.85.85,0,0,0,.42-.8v-2.5a.83.83,0,0,1,.41-.79l.47-.27c.27-.16.41-.05.41.31v1.67a.67.67,0,0,0,.2.55l.34.26a.44.44,0,0,0,.5,0l.37-.21a.85.85,0,0,0,.41-.79v-.15c0-.36-.14-.47-.41-.31l-.07,0c-.27.16-.41.06-.41-.31v-1.27c0-.36,0-.56.07-.59a1.38,1.38,0,0,0,.28-.43l.33-.62a2.15,2.15,0,0,0,.16-.41,1.6,1.6,0,0,0,.05-.39v-3.43a.67.67,0,0,0-.2-.55Zm-.39,4.38a.85.85,0,0,1-.41.79l-1.36.78c-.28.16-.41.06-.41-.31v-2.63a.83.83,0,0,1,.41-.79l1.36-.78c.27-.16.41-.06.41.31Zm6.74-8.32-.17.1a1,1,0,0,0-.46.73l-1.31,6.68a1.52,1.52,0,0,1-.12.36.42.42,0,0,1-.15.2.11.11,0,0,1-.14,0,.41.41,0,0,1-.12-.23L187.79,104c-.07-.26-.22-.32-.46-.18l-.16.09a.83.83,0,0,0-.41.78v8.71c0,.37.14.48.41.32l.11-.06a.85.85,0,0,0,.41-.8v-3.39a.88.88,0,0,1,.06-.33.42.42,0,0,1,.15-.19.12.12,0,0,1,.14,0,.3.3,0,0,1,.11.16l.64,2.36c.07.27.23.34.48.2l.4-.24a1.05,1.05,0,0,0,.46-.74l.56-2.89a.63.63,0,0,1,.24-.43.11.11,0,0,1,.15,0,.36.36,0,0,1,.06.25v3.24c0,.37.14.48.41.32l.1-.06a.82.82,0,0,0,.41-.79v-8.71C192.06,101.25,191.93,101.14,191.65,101.3Zm4.72-2.23c-.06-.29-.2-.37-.44-.24l-1.29.75a1,1,0,0,0-.45.75l-1.3,9.47s0,.09,0,.15a.32.32,0,0,0,.1.28.27.27,0,0,0,.28,0l.13-.08a1,1,0,0,0,.44-.74l.25-1.79a1,1,0,0,1,.44-.75l1.55-.89c.24-.14.39-.06.44.24l.26,1.49c0,.3.2.38.44.24l.12-.07a.73.73,0,0,0,.38-.66.67.67,0,0,0,0-.16Zm-.59,5.81-1,.56c-.12.07-.22.09-.28,0s-.1-.13-.1-.27a.66.66,0,0,1,0-.15l.54-3.94c.06-.36.16-.58.31-.67s.25,0,.31.31l.56,3.3a.67.67,0,0,1,0,.16A.71.71,0,0,1,195.78,104.88Zm5.78-9.33-3.23,1.87a.85.85,0,0,0-.42.8v.15c0,.36.14.45.42.3l.74-.44c.28-.15.41,0,.41.33V106c0,.38.14.48.41.33l.12-.07a.85.85,0,0,0,.41-.8V98a.84.84,0,0,1,.41-.8l.73-.42A.82.82,0,0,0,202,96v-.15C202,95.5,201.84,95.39,201.56,95.55ZM204,94.12l-1.55.9a.83.83,0,0,0-.41.8V96a.48.48,0,0,0,.09.34c.06.06.15,0,.27,0s.2-.07.26,0a.52.52,0,0,1,.09.36v6.24a1.11,1.11,0,0,1-.09.46.62.62,0,0,1-.26.29.66.66,0,0,0-.27.3,1.11,1.11,0,0,0-.09.46v.15c0,.36.13.47.41.31L204,104a.82.82,0,0,0,.41-.78V103a.49.49,0,0,0-.09-.35c-.06-.06-.15-.06-.26,0s-.21.07-.28,0a.49.49,0,0,1-.09-.35V96.11a1.16,1.16,0,0,1,.09-.47.71.71,0,0,1,.28-.31.78.78,0,0,0,.35-.74v-.15C204.45,94.07,204.32,94,204,94.12Zm4.66-2.4a.42.42,0,0,0-.5,0l-2,1.15a1.31,1.31,0,0,0-.5.56l-.33.63a1.74,1.74,0,0,0-.21.8v7a.66.66,0,0,0,.21.56l.34.25a.42.42,0,0,0,.5,0l2-1.15a1.39,1.39,0,0,0,.5-.56l.33-.63a1.85,1.85,0,0,0,.2-.8v-7A.65.65,0,0,0,209,92Zm-.4,8a.85.85,0,0,1-.41.79l-1.37.79c-.28.16-.41,0-.41-.31V94.72a.81.81,0,0,1,.41-.78l1.37-.8c.27-.15.41,0,.41.31ZM214,88.37l-.12.07a.85.85,0,0,0-.41.8v4.81a1,1,0,0,1-.05.36.36.36,0,0,1-.15.2.14.14,0,0,1-.15,0,.36.36,0,0,1-.13-.16l-1.65-4.12c-.09-.23-.24-.28-.47-.15l-.2.12a.82.82,0,0,0-.41.79v8.74c0,.36.13.46.41.31l.11-.07a.84.84,0,0,0,.41-.78v-5a1.14,1.14,0,0,1,.06-.39.39.39,0,0,1,.15-.21q.16-.09.27.18l1.74,4.31c.09.22.25.27.47.14l.12-.07a.83.83,0,0,0,.41-.78V88.7C214.41,88.32,214.27,88.22,214,88.37Z" style="fill:#92E3A9"></path><g style="opacity:0.6000000000000001"><path d="M154.88,94.1a1,1,0,0,0-1.18,0l-6.14,3.55a1.94,1.94,0,0,0-1,1.84V120c0,.86.32,1.1,1,.73l6.14-3.54a3.17,3.17,0,0,0,1.18-1.33l.77-1.47a4.13,4.13,0,0,0,.48-1.88V96a1.53,1.53,0,0,0-.48-1.3Zm-.94,18.71a2,2,0,0,1-1,1.84l-3.23,1.87c-.64.37-1,.13-1-.73V101.15a2,2,0,0,1,1-1.84L153,97.44c.64-.37,1-.12,1,.73ZM162.44,89l-3.66,2.12a2,2,0,0,0-1,1.87v.35a1.13,1.13,0,0,0,.21.81c.15.13.36.12.63,0s.48-.16.62,0a1.19,1.19,0,0,1,.22.84V109.6a2.38,2.38,0,0,1-.22,1.07,1.47,1.47,0,0,1-.62.7,1.59,1.59,0,0,0-.63.7,2.59,2.59,0,0,0-.21,1.07v.36c0,.85.32,1.1,1,.72l3.66-2.11a2,2,0,0,0,1-1.84v-.35a1.17,1.17,0,0,0-.21-.82c-.15-.15-.36-.14-.63,0s-.49.17-.64,0a1.09,1.09,0,0,1-.23-.81V93.66a2.56,2.56,0,0,1,.23-1.09,1.51,1.51,0,0,1,.64-.72,1.85,1.85,0,0,0,.84-1.74v-.36C163.4,88.88,163.08,88.62,162.44,89Zm10.93-5.57a1,1,0,0,0-1.18,0l-4.65,2.68a3.28,3.28,0,0,0-1.18,1.32L165.57,89a4,4,0,0,0-.48,1.85v16.54a1.52,1.52,0,0,0,.48,1.29l.77.59a1,1,0,0,0,1.2-.06l4.65-2.68a3.14,3.14,0,0,0,1.18-1.32l.77-1.48a4.13,4.13,0,0,0,.48-1.88V94.55c0-.86-.32-1.1-1-.73l-2.75,1.58a2,2,0,0,0-1,1.84v.36q0,1.28,1,.72l.58-.33c.65-.37,1-.13,1,.73v3.4a1.94,1.94,0,0,1-1,1.84l-3.25,1.88c-.64.37-1,.13-1-.73V90.47a2,2,0,0,1,1-1.84l3.25-1.88c.65-.37,1-.13,1,.73v3.15c0,.85.32,1.1,1,.72l.24-.13a2,2,0,0,0,1-1.84V85.3a1.55,1.55,0,0,0-.48-1.3Zm7.56-5.1-3.66,2.11a2,2,0,0,0-1,1.87v.35a1.08,1.08,0,0,0,.22.81c.14.13.35.12.62,0s.48-.16.63,0a1.27,1.27,0,0,1,.21.84V98.92a2.6,2.6,0,0,1-.21,1.08,1.65,1.65,0,0,1-.63.7,1.49,1.49,0,0,0-.62.69,2.45,2.45,0,0,0-.22,1.08v.35c0,.86.32,1.1,1,.73l3.66-2.12a2,2,0,0,0,1-1.84v-.35a1.17,1.17,0,0,0-.22-.82c-.15-.14-.35-.13-.63,0s-.48.17-.64,0a1.12,1.12,0,0,1-.22-.82V83a2.57,2.57,0,0,1,.22-1.1,1.67,1.67,0,0,1,.64-.72,1.86,1.86,0,0,0,.85-1.74v-.35C181.9,78.2,181.57,78,180.93,78.32Zm9.78-5.65-7.61,4.39a2,2,0,0,0-1,1.88v.35c0,.84.32,1.07,1,.7l1.76-1c.64-.37,1-.12,1,.76V97.3c0,.87.32,1.13,1,.76l.27-.16A2,2,0,0,0,188,96V78.47a2,2,0,0,1,1-1.88l1.73-1a1.93,1.93,0,0,0,1-1.81v-.35C191.67,72.55,191.35,72.3,190.71,72.67Zm9.63-4.34c-.13-.7-.47-.88-1-.56l-3,1.75a2.26,2.26,0,0,0-1,1.76l-3.06,22.25a1.83,1.83,0,0,0,0,.37.72.72,0,0,0,.23.63c.15.11.38.08.66-.09l.29-.17a2.24,2.24,0,0,0,1-1.75l.6-4.2a2.25,2.25,0,0,1,1-1.75l3.63-2.1c.56-.33.91-.14,1,.56l.6,3.5c.13.7.47.88,1,.56l.28-.17a1.66,1.66,0,0,0,.9-1.54,1.58,1.58,0,0,0,0-.37ZM199,82l-2.31,1.33c-.29.17-.51.2-.67.09s-.22-.31-.22-.63a2,2,0,0,1,0-.37l1.28-9.25c.12-.84.37-1.37.72-1.57s.59,0,.72.74l1.33,7.74a3,3,0,0,1,0,.37A1.69,1.69,0,0,1,199,82Zm15-2.53-5.39,3.11c-.65.37-1,.13-1-.73V64.23c0-.88-.32-1.13-1-.76l-.26.15a2,2,0,0,0-1,1.87V84a1.52,1.52,0,0,0,.48,1.29l.78.59a1,1,0,0,0,1.17,0L214,82.36a2,2,0,0,0,1-1.84v-.36Q214.93,78.89,214,79.44Z" style="fill:#fff"></path><path d="M150.24,125.18,147,127.05a.85.85,0,0,0-.42.8V128q0,.52.42.3l.74-.44c.28-.15.41,0,.41.33v7.47c0,.38.14.48.41.33l.12-.07a.85.85,0,0,0,.41-.8v-7.47a.83.83,0,0,1,.41-.8l.73-.42a.82.82,0,0,0,.41-.77v-.15C150.65,125.13,150.52,125,150.24,125.18Zm4.33-2.19a.42.42,0,0,0-.5,0l-2.6,1.5a.84.84,0,0,0-.41.78V134c0,.37.14.48.41.32l.12-.06a.86.86,0,0,0,.41-.8V131a.83.83,0,0,1,.41-.79l.47-.27c.27-.16.41,0,.41.31v1.67a.67.67,0,0,0,.2.55l.34.26a.42.42,0,0,0,.5,0l.37-.21a.83.83,0,0,0,.41-.79v-.15c0-.36-.13-.46-.41-.31l-.07,0c-.27.16-.41.06-.41-.3v-1.28c0-.36,0-.56.07-.58a1.69,1.69,0,0,0,.28-.44l.33-.62a2.15,2.15,0,0,0,.16-.41,1.23,1.23,0,0,0,.05-.39v-3.43a.67.67,0,0,0-.2-.55Zm-.39,4.37a.85.85,0,0,1-.41.79l-1.36.78c-.28.16-.41.06-.41-.31V126a.83.83,0,0,1,.41-.79l1.36-.78c.27-.16.41-.06.41.31Zm5.13-6.9c-.05-.29-.2-.37-.44-.23l-1.29.74a1,1,0,0,0-.44.75l-1.3,9.47a.71.71,0,0,0,0,.16.31.31,0,0,0,.1.27c.06,0,.16,0,.28,0l.12-.07a1,1,0,0,0,.44-.75L157,129a.93.93,0,0,1,.44-.74l1.55-.9c.24-.14.38-.06.44.24l.25,1.49q.09.45.45.24l.12-.07a.73.73,0,0,0,.38-.66c0-.07,0-.12,0-.16Zm-.58,5.81-1,.57c-.13.07-.22.08-.29,0a.35.35,0,0,1-.09-.28.66.66,0,0,1,0-.15l.54-3.94c.06-.36.16-.58.31-.67s.25,0,.31.32l.56,3.29a.71.71,0,0,1,0,.16A.73.73,0,0,1,158.73,126.27Zm6.49-9.73-.11.06a.83.83,0,0,0-.41.8v4.81a.93.93,0,0,1-.06.36.36.36,0,0,1-.15.2.14.14,0,0,1-.15,0,.36.36,0,0,1-.13-.16l-1.65-4.12c-.08-.23-.24-.28-.47-.15l-.2.12a.83.83,0,0,0-.41.8V128c0,.36.13.47.41.31l.11-.07a.82.82,0,0,0,.41-.78v-5a1,1,0,0,1,.06-.38.39.39,0,0,1,.16-.22c.1-.06.19,0,.26.18l1.74,4.31c.09.22.25.27.48.14l.11-.06a.85.85,0,0,0,.41-.79v-8.73C165.63,116.49,165.49,116.38,165.22,116.54Zm5-2.79a.4.4,0,0,0-.5,0l-2,1.15a1.26,1.26,0,0,0-.5.56l-.33.62a1.75,1.75,0,0,0-.21.81v3a.63.63,0,0,0,.21.55l.33.25c.13.11.3.1.51,0l1.67-1c.27-.15.41,0,.41.31v2a.85.85,0,0,1-.41.79l-1.37.79c-.28.16-.41,0-.41-.31v-.94c0-.37-.14-.47-.41-.31l-.12.06a.84.84,0,0,0-.41.78v1.34a.66.66,0,0,0,.21.56l.34.25a.42.42,0,0,0,.5,0l2-1.14a1.32,1.32,0,0,0,.5-.56l.33-.63a1.85,1.85,0,0,0,.2-.8v-2.76a.67.67,0,0,0-.2-.55l-.33-.25a.42.42,0,0,0-.5,0l-1.68,1c-.28.16-.41.05-.41-.31v-2.18A.82.82,0,0,1,168,116l1.37-.79c.27-.16.41-.06.41.31v1.08c0,.36.14.46.41.31l.11-.07a.82.82,0,0,0,.41-.78v-1.48a.68.68,0,0,0-.2-.55Zm5.2-3-3.23,1.86a.83.83,0,0,0-.41.79v8.72c0,.36.13.46.41.31l.11-.07a.84.84,0,0,0,.41-.78v-2.82a.84.84,0,0,1,.41-.78l2.3-1.33a.83.83,0,0,0,.41-.78v-.15c0-.37-.14-.47-.41-.31l-2.3,1.32c-.27.16-.41.06-.41-.31v-2.32a.84.84,0,0,1,.41-.78l2.3-1.33a.84.84,0,0,0,.41-.78V111C175.79,110.64,175.65,110.54,175.38,110.7Zm4.86-2.55a.42.42,0,0,0-.51,0l-2,1.14a1.49,1.49,0,0,0-.5.57l-.33.62a1.86,1.86,0,0,0-.2.81v7a.67.67,0,0,0,.2.55l.34.26a.44.44,0,0,0,.5,0l2-1.14a1.43,1.43,0,0,0,.51-.57l.32-.62a1.75,1.75,0,0,0,.21-.81v-7a.64.64,0,0,0-.21-.55Zm-.4,8a.84.84,0,0,1-.41.78l-1.38.79c-.27.16-.41.06-.41-.31v-6.26a.84.84,0,0,1,.41-.78l1.38-.79c.27-.16.41-.06.41.31Zm5.46-10.91a.44.44,0,0,0-.5,0l-2.6,1.5a.84.84,0,0,0-.41.78v8.71c0,.37.14.48.41.32l.11-.06a.85.85,0,0,0,.42-.8v-2.5a.83.83,0,0,1,.41-.79l.47-.27c.27-.16.41-.05.41.31v1.67a.67.67,0,0,0,.2.55l.34.26a.44.44,0,0,0,.5,0l.37-.21a.85.85,0,0,0,.41-.79v-.15c0-.36-.14-.47-.41-.31l-.07,0c-.27.16-.41.06-.41-.31v-1.27c0-.36,0-.56.07-.59a1.38,1.38,0,0,0,.28-.43l.33-.62a2.15,2.15,0,0,0,.16-.41,1.6,1.6,0,0,0,.05-.39v-3.43a.67.67,0,0,0-.2-.55Zm-.39,4.38a.85.85,0,0,1-.41.79l-1.36.78c-.28.16-.41.06-.41-.31v-2.63a.83.83,0,0,1,.41-.79l1.36-.78c.27-.16.41-.06.41.31Zm6.74-8.32-.17.1a1,1,0,0,0-.46.73l-1.31,6.68a1.52,1.52,0,0,1-.12.36.42.42,0,0,1-.15.2.11.11,0,0,1-.14,0,.41.41,0,0,1-.12-.23L187.79,104c-.07-.26-.22-.32-.46-.18l-.16.09a.83.83,0,0,0-.41.78v8.71c0,.37.14.48.41.32l.11-.06a.85.85,0,0,0,.41-.8v-3.39a.88.88,0,0,1,.06-.33.42.42,0,0,1,.15-.19.12.12,0,0,1,.14,0,.3.3,0,0,1,.11.16l.64,2.36c.07.27.23.34.48.2l.4-.24a1.05,1.05,0,0,0,.46-.74l.56-2.89a.63.63,0,0,1,.24-.43.11.11,0,0,1,.15,0,.36.36,0,0,1,.06.25v3.24c0,.37.14.48.41.32l.1-.06a.82.82,0,0,0,.41-.79v-8.71C192.06,101.25,191.93,101.14,191.65,101.3Zm4.72-2.23c-.06-.29-.2-.37-.44-.24l-1.29.75a1,1,0,0,0-.45.75l-1.3,9.47s0,.09,0,.15a.32.32,0,0,0,.1.28.27.27,0,0,0,.28,0l.13-.08a1,1,0,0,0,.44-.74l.25-1.79a1,1,0,0,1,.44-.75l1.55-.89c.24-.14.39-.06.44.24l.26,1.49c0,.3.2.38.44.24l.12-.07a.73.73,0,0,0,.38-.66.67.67,0,0,0,0-.16Zm-.59,5.81-1,.56c-.12.07-.22.09-.28,0s-.1-.13-.1-.27a.66.66,0,0,1,0-.15l.54-3.94c.06-.36.16-.58.31-.67s.25,0,.31.31l.56,3.3a.67.67,0,0,1,0,.16A.71.71,0,0,1,195.78,104.88Zm5.78-9.33-3.23,1.87a.85.85,0,0,0-.42.8v.15c0,.36.14.45.42.3l.74-.44c.28-.15.41,0,.41.33V106c0,.38.14.48.41.33l.12-.07a.85.85,0,0,0,.41-.8V98a.84.84,0,0,1,.41-.8l.73-.42A.82.82,0,0,0,202,96v-.15C202,95.5,201.84,95.39,201.56,95.55ZM204,94.12l-1.55.9a.83.83,0,0,0-.41.8V96a.48.48,0,0,0,.09.34c.06.06.15,0,.27,0s.2-.07.26,0a.52.52,0,0,1,.09.36v6.24a1.11,1.11,0,0,1-.09.46.62.62,0,0,1-.26.29.66.66,0,0,0-.27.3,1.11,1.11,0,0,0-.09.46v.15c0,.36.13.47.41.31L204,104a.82.82,0,0,0,.41-.78V103a.49.49,0,0,0-.09-.35c-.06-.06-.15-.06-.26,0s-.21.07-.28,0a.49.49,0,0,1-.09-.35V96.11a1.16,1.16,0,0,1,.09-.47.71.71,0,0,1,.28-.31.78.78,0,0,0,.35-.74v-.15C204.45,94.07,204.32,94,204,94.12Zm4.66-2.4a.42.42,0,0,0-.5,0l-2,1.15a1.31,1.31,0,0,0-.5.56l-.33.63a1.74,1.74,0,0,0-.21.8v7a.66.66,0,0,0,.21.56l.34.25a.42.42,0,0,0,.5,0l2-1.15a1.39,1.39,0,0,0,.5-.56l.33-.63a1.85,1.85,0,0,0,.2-.8v-7A.65.65,0,0,0,209,92Zm-.4,8a.85.85,0,0,1-.41.79l-1.37.79c-.28.16-.41,0-.41-.31V94.72a.81.81,0,0,1,.41-.78l1.37-.8c.27-.15.41,0,.41.31ZM214,88.37l-.12.07a.85.85,0,0,0-.41.8v4.81a1,1,0,0,1-.05.36.36.36,0,0,1-.15.2.14.14,0,0,1-.15,0,.36.36,0,0,1-.13-.16l-1.65-4.12c-.09-.23-.24-.28-.47-.15l-.2.12a.82.82,0,0,0-.41.79v8.74c0,.36.13.46.41.31l.11-.07a.84.84,0,0,0,.41-.78v-5a1.14,1.14,0,0,1,.06-.39.39.39,0,0,1,.15-.21q.16-.09.27.18l1.74,4.31c.09.22.25.27.47.14l.12-.07a.83.83,0,0,0,.41-.78V88.7C214.41,88.32,214.27,88.22,214,88.37Z" style="fill:#fff"></path></g></g></g></svg>
